<?xml version="1.0" encoding="UTF-8" standalone="no"?>
<!DOCTYPE svg PUBLIC "-//W3C//DTD SVG 20010904//EN"
              "http://www.w3.org/TR/2001/REC-SVG-20010904/DTD/svg10.dtd">

<svg xmlns="http://www.w3.org/2000/svg"
     width="2.11667in" height="2.11in"
     viewBox="0 0 635 633">
  <path id="Selection #2"
        fill="none" stroke="black" stroke-width="1"
        d="M 0.00,0.00
           C 0.00,0.00 0.00,633.00 0.00,633.00
             0.00,633.00 635.00,633.00 635.00,633.00
             635.00,633.00 635.00,0.00 635.00,0.00
             635.00,0.00 0.00,0.00 0.00,0.00 Z
           M 232.50,200.50M 294.00,254.00
           C 287.51,255.42 287.00,251.06 275.00,251.00
             260.33,250.93 255.88,250.55 244.00,260.46
             239.75,264.01 230.45,274.83 238.42,279.59
             242.26,281.89 257.01,278.23 262.00,277.44
             279.88,274.58 289.24,273.91 303.00,287.00
             294.60,282.99 286.62,279.32 277.00,280.09
             273.27,280.39 271.32,281.41 268.00,282.92
             257.41,287.73 252.57,292.66 249.29,304.00
             248.50,306.74 247.42,310.19 247.19,313.00
             246.89,316.59 248.56,329.35 249.67,333.00
             250.47,335.64 253.50,339.75 253.00,342.00
             253.00,342.00 264.00,343.00 264.00,343.00
             264.00,343.00 265.99,336.04 265.99,336.04
             265.99,336.04 268.98,329.83 268.98,329.83
             268.98,329.83 270.73,322.00 270.73,322.00
             274.96,308.80 284.07,293.30 300.00,296.00
             292.41,306.61 293.36,297.80 283.76,306.45
             282.44,307.64 280.93,308.64 280.02,310.21
             277.60,314.38 275.72,331.13 276.98,336.00
             278.46,341.72 283.34,344.51 288.89,341.99
             294.65,339.39 293.96,330.37 299.00,325.00
             295.91,317.45 298.52,319.05 299.85,313.00
             299.85,313.00 299.85,305.00 299.85,305.00
             299.85,305.00 303.00,307.00 303.00,307.00
             303.00,307.00 303.00,306.00 303.00,306.00
             303.00,306.00 301.00,304.00 301.00,304.00
             301.00,304.00 304.00,303.00 304.00,303.00
             308.06,313.56 306.95,317.08 307.00,328.00
             307.00,328.00 311.65,358.00 311.65,358.00
             311.65,358.00 310.00,365.00 310.00,365.00
             314.80,368.12 314.93,377.61 315.00,383.00
             315.00,383.00 315.00,416.00 315.00,416.00
             315.00,416.00 335.06,421.00 335.06,421.00
             335.06,421.00 335.06,401.04 335.06,401.04
             335.71,396.22 335.00,394.00 335.00,394.00
             328.93,382.84 333.49,367.77 332.64,362.17
             332.21,359.30 330.45,358.79 329.63,354.71
             328.29,348.03 327.04,331.99 327.00,325.00
             326.95,314.61 323.96,316.42 324.18,310.99
             324.18,310.99 327.00,298.00 327.00,298.00
             327.00,298.00 329.00,295.00 329.00,295.00
             336.71,294.94 346.45,303.57 349.61,310.17
             349.61,310.17 356.64,338.00 356.64,338.00
             357.29,341.08 357.82,348.58 359.17,350.85
             362.00,355.60 368.43,354.26 371.78,350.85
             375.35,347.22 378.08,335.20 378.79,330.00
             378.79,330.00 378.00,311.00 378.00,311.00
             378.00,311.00 372.87,303.00 372.87,303.00
             372.87,303.00 362.00,291.48 362.00,291.48
             362.00,291.48 356.00,286.00 356.00,286.00
             356.00,286.00 336.00,285.00 336.00,285.00
             345.39,279.89 349.85,281.80 359.00,285.73
             364.56,288.12 369.84,290.76 375.04,293.85
             379.10,296.27 387.82,302.61 392.61,300.42
             395.32,299.18 395.92,295.66 395.66,293.00
             395.13,287.72 390.23,280.13 386.87,276.10
             375.25,262.18 359.59,261.39 343.00,264.00
             344.55,262.08 346.40,260.08 347.58,257.91
             348.37,256.45 348.97,254.59 349.49,253.00
             351.42,247.06 350.92,241.79 343.00,244.31
             337.79,245.96 327.40,250.87 323.30,254.39
             314.24,262.15 315.00,268.25 315.00,279.00
             311.67,270.10 312.00,264.78 310.25,256.00
             310.25,256.00 304.25,235.00 304.25,235.00
             300.86,226.89 295.34,220.17 286.00,220.00
             286.00,220.00 282.00,220.00 282.00,220.00
             280.08,220.00 276.25,219.75 274.79,220.99
             272.26,223.04 273.97,231.24 274.79,234.00
             278.06,244.33 284.34,249.63 294.00,254.00 Z
           M 329.00,295.00 329.00,295.00 329.00,295.00 329.00,295.00
           M 397.00,299.00
           C 397.00,299.00 397.00,300.00 397.00,300.00
             397.00,300.00 398.00,299.00 398.00,299.00
             398.00,299.00 397.00,299.00 397.00,299.00 Z
           M 277.00,325.00 277.00,325.00 277.00,325.00 277.00,325.00" />
</svg>
