<?xml version="1.0" encoding="UTF-8" standalone="no"?>
<!DOCTYPE svg PUBLIC "-//W3C//DTD SVG 20010904//EN"
              "http://www.w3.org/TR/2001/REC-SVG-20010904/DTD/svg10.dtd">

<svg xmlns="http://www.w3.org/2000/svg"
     width="2.01333in" height="1.33667in"
     viewBox="0 0 604 401">
  <path id="Selection #1"
        fill="none" stroke="black" stroke-width="1"
        d="M 0.00,0.00
           C 0.00,0.00 0.00,401.00 0.00,401.00
             0.00,401.00 604.00,401.00 604.00,401.00
             604.00,401.00 604.00,0.00 604.00,0.00
             604.00,0.00 0.00,0.00 0.00,0.00 Z
           M 274.00,82.00
           C 264.86,77.41 266.38,79.38 261.12,83.88
             259.13,85.03 254.49,85.65 253.70,88.14
             252.38,92.33 256.70,95.37 258.47,97.58
             261.09,100.86 259.77,103.50 262.66,106.52
             265.37,109.36 271.29,110.44 273.40,112.70
             275.66,115.11 274.59,118.44 275.40,121.90
             275.40,121.90 276.88,124.88 278.38,126.38
             280.75,127.88 279.28,126.75 282.83,126.87
             286.38,127.00 289.62,112.38 288.12,110.50
             288.12,110.50 283.12,106.75 286.00,104.00
             287.18,102.90 288.81,102.00 291.88,107.19
             294.94,112.38 298.19,111.69 300.50,109.88
             302.50,108.31 298.75,104.56 301.00,104.00
             303.25,103.44 312.93,104.07 315.96,105.93
             322.05,109.67 322.11,119.50 331.00,116.40
             332.80,115.78 333.76,113.33 335.00,114.00
             336.24,114.67 337.00,124.55 341.46,128.43
             344.72,131.26 349.71,131.73 351.43,126.94
             351.85,125.33 351.40,123.64 351.43,122.00
             351.95,117.70 354.70,115.75 354.32,112.00
             353.89,107.82 350.38,106.25 349.28,103.74
             348.53,102.01 348.25,95.26 343.46,90.54
             339.66,86.81 333.81,87.14 332.00,81.00
             329.80,77.49 331.23,76.10 329.65,73.10
             324.99,64.31 318.35,72.05 312.00,71.60
             307.40,71.28 303.59,67.31 299.15,70.19
             295.75,72.39 296.40,75.19 295.15,77.70
             294.16,79.70 287.83,85.31 285.85,86.22
             281.38,88.27 281.21,82.72 280.42,81.31
             278.48,77.84 275.68,79.50 274.00,82.00 Z
           M 239.00,139.00
           C 239.00,139.00 237.56,140.00 235.00,138.66
             232.44,137.31 231.06,135.66 228.53,137.11
             226.06,138.76 225.69,145.91 222.56,146.88
             219.69,147.76 217.54,142.35 214.26,143.65
             212.20,144.46 212.19,148.66 210.59,150.25
             209.00,151.84 206.44,150.75 205.59,151.72
             204.75,152.69 205.92,156.42 205.06,159.06
             204.10,162.01 201.61,163.32 201.56,164.00
             201.44,165.46 201.72,166.58 202.61,167.77
             205.52,171.67 210.54,169.21 213.25,169.72
             216.38,170.91 217.26,174.49 221.97,174.56
             225.83,174.62 229.87,169.77 233.25,170.16
             237.29,170.62 238.54,176.43 243.01,177.34
             248.02,178.36 252.06,174.62 249.76,169.00
             246.92,162.05 238.75,158.66 237.00,159.00
             235.25,159.34 235.84,155.41 238.00,155.00
             238.00,155.00 239.50,155.12 241.00,157.00
             242.50,158.88 248.25,156.88 251.00,154.00
             253.75,151.12 249.82,146.09 249.82,146.09
             250.45,142.86 258.79,136.99 262.00,136.64
             264.94,136.31 277.29,143.18 277.75,133.00
             277.91,129.38 272.31,121.70 268.90,120.82
             266.64,120.08 264.71,121.45 262.28,120.82
             259.83,120.35 257.70,117.40 253.04,119.05
             247.70,120.93 248.78,125.28 246.69,128.52
             243.85,132.93 241.57,131.03 239.00,139.00 Z
           M 336.00,163.00
           C 335.53,164.44 329.58,167.22 335.06,169.11
             338.76,170.39 347.69,170.03 351.00,171.00
             354.31,171.97 348.66,179.25 351.00,181.03
             353.34,182.81 359.13,185.01 361.94,184.58
             366.75,183.84 366.05,177.84 365.82,174.28
             365.60,170.78 361.80,162.06 359.42,159.72
             359.42,159.72 348.97,154.99 349.16,154.19
             349.34,153.39 350.67,152.65 350.62,151.31
             349.47,147.88 341.31,149.94 341.62,146.47
             342.19,144.19 350.69,145.78 351.53,143.84
             352.38,141.91 351.97,139.00 351.97,139.00
             351.38,136.38 347.25,136.35 341.42,136.07
             330.18,135.54 334.89,133.10 323.00,138.10
             320.04,139.35 314.01,140.01 315.08,144.79
             315.66,147.36 319.57,148.23 321.72,149.31
             322.79,149.85 327.38,147.25 329.25,150.75
             329.75,156.00 335.62,156.00 334.98,158.43
             335.93,159.87 336.47,161.56 336.00,163.00 Z
           M 314.98,150.02
           C 314.98,150.02 310.00,151.89 310.00,151.89
             306.73,152.73 303.68,151.52 301.51,156.06
             298.41,162.54 300.95,165.51 303.17,171.07
             304.51,174.44 305.19,177.64 309.90,176.64
             316.53,175.23 313.13,167.43 313.80,165.06
             314.67,161.99 317.81,161.24 319.19,159.46
             321.27,156.78 321.88,149.59 314.98,150.02 Z
           M 298.62,120.91" />
</svg>
