<?xml version="1.0" encoding="UTF-8" standalone="no"?>
<!DOCTYPE svg PUBLIC "-//W3C//DTD SVG 20010904//EN"
              "http://www.w3.org/TR/2001/REC-SVG-20010904/DTD/svg10.dtd">

<svg xmlns="http://www.w3.org/2000/svg"
     width="2.04333in" height="2.66667in"
     viewBox="0 0 613 800">
  <path id="Selection #1"
        fill="none" stroke="black" stroke-width="1"
        d="M 0.00,0.00
           C 0.00,0.00 0.00,800.00 0.00,800.00
             0.00,800.00 613.00,800.00 613.00,800.00
             613.00,800.00 613.00,0.00 613.00,0.00
             613.00,0.00 0.00,0.00 0.00,0.00 Z
           M 374.00,240.00
           C 374.00,240.00 374.00,450.00 374.00,450.00
             374.00,450.00 239.00,450.00 239.00,450.00
             239.00,450.00 239.00,240.00 239.00,240.00
             239.00,240.00 374.00,240.00 374.00,240.00 Z
           M 294.00,246.00
           C 294.00,246.00 294.00,250.00 294.00,250.00
             288.18,251.57 283.13,255.77 280.30,261.15
             280.30,261.15 278.26,266.26 278.26,266.26
             275.63,270.70 272.40,273.03 271.34,279.00
             270.34,284.62 273.18,287.17 272.42,289.11
             271.60,291.18 267.87,290.72 265.15,292.74
             261.82,295.20 262.05,298.30 262.00,302.00
             262.00,302.00 256.00,302.00 256.00,302.00
             255.96,313.45 253.19,309.80 252.24,316.01
             251.70,319.56 253.17,322.31 252.95,325.00
             252.95,325.00 251.45,331.00 251.45,331.00
             250.81,333.98 251.72,336.06 251.45,337.72
             251.40,340.01 250.06,341.10 249.62,343.04
             248.71,347.06 251.56,348.53 251.60,351.42
             251.67,357.38 245.37,356.24 247.00,365.00
             241.65,368.02 242.92,371.06 245.14,376.00
             237.70,380.12 242.68,391.37 245.14,392.35
             247.30,393.11 250.17,391.94 251.98,391.02
             253.57,390.22 255.02,389.38 255.93,387.78
             256.78,386.27 256.83,383.74 257.00,382.00
             263.12,383.29 268.48,379.20 269.00,373.00
             269.00,373.00 274.00,373.00 274.00,373.00
             273.87,369.28 274.24,368.17 271.00,366.00
             273.95,361.78 272.31,360.17 270.00,356.00
             275.96,357.93 277.06,358.45 283.00,356.00
             284.18,359.97 285.43,363.05 290.02,363.76
             296.65,364.79 298.25,359.82 302.18,358.46
             307.06,356.79 310.48,360.52 315.00,360.48
             319.23,360.44 321.25,357.32 325.28,358.22
             330.44,359.37 330.36,362.93 332.58,365.40
             334.08,367.07 337.02,368.69 338.91,370.04
             342.97,372.93 348.26,377.66 353.85,375.39
             356.86,374.16 357.46,368.86 357.73,365.91
             358.11,361.70 356.35,357.88 356.14,354.00
             355.80,347.77 360.07,341.25 350.00,339.00
             350.00,339.00 347.00,334.00 347.00,334.00
             348.22,326.80 346.47,323.68 340.00,320.00
             342.21,311.87 338.31,310.36 331.00,310.00
             333.53,306.42 335.18,303.26 332.26,299.14
             330.08,296.05 324.64,294.49 322.01,289.71
             320.50,286.97 321.59,285.35 319.06,281.02
             316.53,276.69 314.39,276.05 312.72,273.74
             312.72,273.74 307.51,262.95 307.51,262.95
             304.41,255.50 304.08,246.82 294.00,246.00 Z" />
</svg>
