<?xml version="1.0" encoding="UTF-8" standalone="no"?>
<!DOCTYPE svg PUBLIC "-//W3C//DTD SVG 20010904//EN"
              "http://www.w3.org/TR/2001/REC-SVG-20010904/DTD/svg10.dtd">

<svg xmlns="http://www.w3.org/2000/svg"
     width="2.01333in" height="1.33667in"
     viewBox="0 0 604 401">
  <path id="canopy1"
        fill="none" stroke="black" stroke-width="1"
        d="M 211.00,0.00
           C 211.00,0.00 0.00,0.00 0.00,0.00
             0.00,0.00 0.00,401.00 0.00,401.00M 604.00,401.00
           C 604.00,401.00 604.00,0.00 604.00,0.00
             604.00,0.00 604.00,401.00 604.00,401.00 Z
           M 279.00,31.00
           C 267.32,31.95 270.40,39.81 274.00,47.00
             265.95,49.57 262.50,53.63 265.00,62.00
             254.78,59.73 256.58,56.89 247.00,64.00
             247.00,64.00 251.00,72.00 251.00,72.00
             244.66,78.22 245.50,80.63 247.00,89.00
             247.00,89.00 256.00,90.00 256.00,90.00
             256.00,90.00 256.00,92.00 256.00,92.00
             253.28,92.09 250.55,92.05 248.31,93.89
             244.59,96.96 244.83,103.92 253.00,106.00
             251.44,112.67 253.58,120.32 262.00,119.67
             264.82,119.46 267.61,117.43 270.00,116.00
             273.74,125.58 284.54,121.57 290.00,116.00
             295.72,120.98 298.03,118.68 303.27,114.86
             307.42,111.83 310.62,107.76 305.00,104.00
             305.00,104.00 306.00,102.00 306.00,102.00
             299.19,99.74 296.23,99.14 289.00,100.30
             282.77,101.30 281.42,104.67 277.00,101.00
             277.00,101.00 288.42,97.68 288.42,97.68
             288.42,97.68 298.00,96.00 298.00,96.00
             291.84,92.02 280.15,97.00 279.00,87.00
             287.85,94.59 287.53,89.26 296.00,91.80
             296.00,91.80 310.00,99.00 310.00,99.00
             310.00,99.00 313.91,100.74 313.91,100.74
             313.91,100.74 313.00,94.00 313.00,94.00
             313.00,94.00 313.00,90.00 313.00,90.00
             313.00,90.00 315.00,90.00 315.00,90.00
             313.99,85.99 313.63,81.80 311.89,78.00
             307.09,67.45 304.01,70.75 304.00,57.00
             310.85,63.57 313.69,75.08 317.00,84.00
             317.00,84.00 320.00,84.00 320.00,84.00
             323.33,73.83 323.60,67.47 324.00,57.00
             324.00,57.00 327.00,58.00 327.00,58.00
             327.00,58.00 325.91,74.00 325.91,74.00
             325.91,74.00 324.22,92.83 324.22,92.83
             324.22,92.83 328.48,100.70 328.48,100.70
             328.48,100.70 334.00,87.00 334.00,87.00
             334.00,87.00 341.00,73.00 341.00,73.00
             341.00,73.00 340.00,74.00 340.00,74.00
             340.00,74.00 341.00,76.00 341.00,76.00
             338.61,77.98 335.89,86.53 337.29,89.46
             337.87,90.66 338.46,90.59 339.00,91.00
             341.16,82.99 345.42,76.13 352.00,71.00
             343.98,82.32 343.91,78.57 340.50,93.00
             339.44,97.49 338.57,98.09 339.00,103.00
             339.00,103.00 357.00,91.00 357.00,91.00
             357.00,91.00 345.00,102.00 345.00,102.00
             345.00,102.00 357.00,100.00 357.00,100.00
             349.51,105.66 339.90,104.83 337.42,116.00
             336.37,120.73 340.81,123.95 345.00,124.62
             350.43,125.49 354.32,123.60 357.00,119.00
             368.12,122.93 370.49,117.28 375.09,115.58
             377.57,114.67 380.33,115.37 382.26,113.40
             384.13,111.50 383.64,108.59 385.02,106.32
             386.45,103.96 389.24,102.84 390.83,99.91
             394.26,93.55 390.04,88.08 384.00,86.00
             390.57,78.96 385.96,70.35 376.00,70.00
             383.38,58.55 379.15,62.11 379.95,55.00
             380.47,50.48 385.22,43.99 376.00,41.00
             375.99,38.95 376.12,35.90 375.40,34.02
             373.70,29.52 367.56,26.79 363.00,27.72
             361.19,28.09 359.60,29.13 358.00,30.00
             358.00,30.00 359.00,25.00 359.00,25.00
             352.44,18.87 353.30,20.22 345.00,21.33
             342.34,21.69 339.81,21.13 337.86,23.44
             334.68,27.21 337.81,32.54 329.00,37.00
             329.00,37.00 334.00,25.00 334.00,25.00
             334.00,25.00 331.00,27.00 331.00,27.00
             328.63,20.45 325.25,20.48 319.00,21.00
             318.98,18.79 319.08,16.09 318.26,14.01
             317.53,12.13 316.40,10.80 314.89,9.48
             304.86,0.65 298.47,12.42 295.74,13.98
             294.09,14.92 292.80,14.79 291.00,14.79
             279.78,14.78 276.49,20.69 279.00,31.00 Z
           M 382.00,116.00
           C 382.00,116.00 382.00,117.00 382.00,117.00
             382.00,117.00 383.00,116.00 383.00,116.00
             383.00,116.00 382.00,116.00 382.00,116.00 Z" />
</svg>
