<?xml version="1.0" encoding="UTF-8" standalone="no"?>
<!DOCTYPE svg PUBLIC "-//W3C//DTD SVG 20010904//EN"
              "http://www.w3.org/TR/2001/REC-SVG-20010904/DTD/svg10.dtd">

<svg xmlns="http://www.w3.org/2000/svg"
     width="2.01333in" height="1.33667in"
     viewBox="0 0 604 401">
  <path id="Selection #1"
        fill="none" stroke="black" stroke-width="1"
        d="M 238.00,117.00
           C 241.00,121.98 238.20,124.95 237.33,130.00
             237.33,130.00 236.35,139.99 236.35,139.99
             235.04,144.31 233.14,143.97 234.00,149.00
             229.43,152.77 232.08,157.10 231.86,162.00
             231.46,170.83 232.07,166.15 232.46,172.09
             233.02,180.87 232.47,193.68 246.00,190.00
             247.02,193.61 250.99,204.85 254.41,206.43
             260.82,209.39 264.29,204.51 268.95,202.51
             271.80,201.29 274.09,202.24 276.84,201.74
             276.84,201.74 283.00,200.00 283.00,200.00
             283.00,200.00 286.00,193.00 286.00,193.00
             286.00,193.00 262.00,190.00 262.00,190.00
             262.00,190.00 262.00,188.00 262.00,188.00
             262.00,188.00 277.00,189.00 277.00,189.00
             277.00,189.00 272.00,183.00 272.00,183.00
             272.00,183.00 282.96,184.81 282.96,184.81
             282.96,184.81 289.00,184.81 289.00,184.81
             289.00,184.81 290.44,179.99 290.44,179.99
             293.04,166.14 278.76,174.42 274.00,174.84
             267.12,175.45 269.94,171.55 257.00,177.00
             256.35,169.94 261.79,167.44 268.00,167.00
             264.61,163.83 259.45,162.25 255.00,161.00
             258.08,155.90 260.36,159.01 265.00,160.37
             265.00,160.37 271.00,161.52 271.00,161.52
             276.50,162.83 277.80,164.59 284.00,164.00
             277.56,155.09 269.43,153.20 266.00,141.00
             266.00,141.00 276.04,150.54 276.04,150.54
             276.04,150.54 286.70,157.61 286.70,157.61
             286.70,157.61 296.00,167.00 296.00,167.00
             296.00,167.00 290.27,156.00 290.27,156.00
             290.27,156.00 287.01,145.00 287.01,145.00
             287.01,145.00 278.91,130.58 278.91,130.58
             272.59,120.31 269.01,122.70 270.00,115.00
             270.00,115.00 280.00,123.00 280.00,123.00
             280.00,115.88 279.03,111.97 284.84,107.00
             286.70,114.68 283.44,120.98 284.84,126.00
             285.96,131.24 291.94,138.08 294.59,143.00
             297.00,147.46 296.92,152.19 302.00,154.00
             302.00,154.00 306.22,139.00 306.22,139.00
             306.22,139.00 306.22,125.00 306.22,125.00
             306.00,123.48 305.67,115.05 309.17,116.55
             310.92,117.30 310.87,120.46 310.85,122.00
             310.77,128.02 310.56,130.68 314.00,136.00
             314.00,136.00 319.13,124.00 319.13,124.00
             319.13,124.00 325.00,115.00 325.00,115.00
             325.00,115.00 330.00,117.00 330.00,117.00
             330.00,117.00 330.00,120.00 330.00,120.00
             326.31,122.02 321.44,127.20 319.85,131.17
             319.85,131.17 317.65,139.00 317.65,139.00
             313.12,150.13 310.04,150.80 310.00,164.00
             319.86,157.46 313.31,138.21 328.00,137.00
             328.00,137.00 324.00,152.00 324.00,152.00
             336.06,149.70 341.68,136.55 352.00,131.00
             352.00,131.00 347.00,142.00 347.00,142.00
             356.21,137.81 355.55,134.26 366.00,134.00
             366.00,134.00 351.42,143.55 351.42,143.55
             351.42,143.55 329.00,159.00 329.00,159.00
             329.00,159.00 330.00,166.00 330.00,166.00
             338.64,161.84 341.18,157.04 351.00,160.00
             343.00,164.94 337.03,163.26 333.00,173.00
             344.60,172.89 343.68,169.53 353.00,166.30
             357.51,164.74 361.34,165.00 366.00,165.00
             366.00,165.00 366.00,169.00 366.00,169.00
             363.77,168.48 362.36,168.05 360.00,168.38
             356.09,168.92 343.27,174.03 341.00,177.00
             341.00,177.00 346.00,180.00 346.00,180.00
             346.00,180.00 333.00,180.00 333.00,180.00
             333.00,180.00 336.00,183.00 336.00,183.00
             337.56,189.83 340.69,187.76 345.83,190.94
             354.33,196.09 361.69,203.18 368.20,190.94
             368.20,190.94 371.00,185.00 371.00,185.00
             371.00,185.00 376.00,189.00 376.00,189.00
             379.69,180.71 381.75,182.31 383.98,177.96
             385.00,175.97 385.88,164.05 386.18,161.01
             386.29,159.26 386.83,156.40 386.18,154.77
             384.60,150.43 379.72,151.53 377.74,146.89
             375.45,141.54 379.63,137.74 373.00,134.00
             373.00,134.00 373.00,132.00 373.00,132.00
             373.00,132.00 378.00,130.00 378.00,130.00
             377.77,126.47 378.18,121.39 376.31,118.46
             374.87,116.19 372.18,114.58 370.60,112.71
             367.14,108.67 369.69,107.10 363.00,106.00
             362.99,102.00 363.39,93.48 358.86,91.59
             354.72,90.26 349.99,92.75 346.28,91.59
             337.79,88.26 338.15,80.75 332.00,78.85
             327.37,77.41 322.25,79.49 317.72,79.72
             317.72,79.72 311.17,79.72 311.17,79.72
             311.17,79.72 306.89,79.72 306.89,79.72
             303.70,79.16 303.47,76.01 301.48,74.03
             298.33,70.88 294.32,69.41 290.00,69.00
             290.00,69.00 290.00,66.00 290.00,66.00
             290.00,66.00 276.10,68.25 276.10,68.25
             274.87,68.69 274.00,69.31 273.29,70.42
             271.27,73.57 273.31,78.07 270.43,80.35
             267.31,82.82 259.23,78.59 253.28,82.93
             247.91,86.84 251.59,93.78 249.67,98.82
             247.96,103.34 242.17,104.74 239.88,107.52
             237.71,110.14 238.22,113.80 238.00,117.00 Z
           M 251.00,99.00
           C 251.00,99.00 251.00,100.00 251.00,100.00
             251.00,100.00 250.00,99.00 250.00,99.00
             250.00,99.00 251.00,99.00 251.00,99.00 Z
           M 363.00,158.00
           C 363.00,158.00 355.00,160.00 355.00,160.00
             356.80,155.04 359.42,152.91 363.00,158.00 Z" />
</svg>
