<?xml version="1.0" encoding="UTF-8" standalone="no"?>
<!DOCTYPE svg PUBLIC "-//W3C//DTD SVG 20010904//EN"
              "http://www.w3.org/TR/2001/REC-SVG-20010904/DTD/svg10.dtd">

<svg xmlns="http://www.w3.org/2000/svg"
     width="2.04333in" height="2.66667in"
     viewBox="0 0 613 800">
  <path id="Selection"
        fill="none" stroke="black" stroke-width="1"
        d="M 324.00,1.00
           C 327.86,17.09 307.70,31.48 294.00,35.08
             290.51,35.99 288.52,35.97 285.00,36.00
             290.64,30.23 294.45,25.28 298.00,18.00
             293.97,19.48 290.27,21.92 286.00,22.67
             280.21,23.69 275.51,21.90 268.00,24.55
             260.59,27.16 255.51,31.61 250.00,37.00
             250.39,28.97 253.18,23.15 258.32,17.00
             261.43,13.28 264.65,11.31 267.00,7.00
             246.93,7.18 236.92,19.63 226.34,35.00
             223.29,39.43 220.39,43.13 218.00,48.00
             218.00,48.00 216.00,48.00 216.00,48.00
             213.52,37.11 209.18,23.38 198.00,19.00
             198.00,19.00 199.96,32.00 199.96,32.00
             200.51,45.62 193.04,53.93 184.00,63.00
             186.14,46.79 185.49,45.40 176.00,32.00
             173.89,37.33 176.14,41.24 172.77,47.00
             166.60,57.57 147.46,64.20 137.00,71.00
             132.31,58.49 139.10,52.37 144.00,41.00
             144.00,41.00 134.00,45.75 134.00,45.75
             122.28,51.67 119.02,55.77 119.04,69.00
             119.04,69.00 119.04,77.00 119.04,77.00
             119.37,81.06 121.60,89.21 117.57,91.94
             115.04,93.72 109.73,92.81 107.00,91.94
             98.11,88.91 92.09,81.32 84.00,77.00
             88.04,94.70 91.68,104.28 110.00,111.00
             102.95,113.00 99.90,110.87 88.00,113.90
             73.39,117.62 60.14,130.50 56.00,145.00
             59.44,142.55 63.33,138.49 67.00,137.01
             74.83,133.84 82.87,139.27 91.00,140.00
             78.64,150.04 60.53,153.18 45.00,153.00
             37.45,152.91 33.01,151.34 26.00,149.00
             27.48,153.45 29.66,156.58 33.09,159.82
             43.66,169.80 54.77,168.00 68.00,168.00
             53.69,177.02 30.06,173.99 17.79,191.00
             13.99,196.27 12.78,201.92 11.00,208.00
             22.53,203.49 27.86,191.16 46.00,198.00
             42.29,204.93 33.98,220.97 28.91,225.82
             21.89,232.52 9.86,236.82 1.00,241.00
             12.24,249.69 29.15,248.72 42.00,245.00
             32.55,254.45 23.11,263.60 19.49,277.00
             17.65,283.80 18.00,288.14 18.00,295.00
             27.55,286.18 26.12,283.40 41.00,280.00
             39.10,302.66 23.09,320.27 4.00,331.00
             4.00,331.00 4.00,333.00 4.00,333.00
             14.21,338.23 20.72,338.63 31.00,333.00
             29.56,350.64 25.06,353.46 16.00,367.00
             16.00,367.00 34.91,359.21 34.91,359.21
             34.91,359.21 46.00,349.00 46.00,349.00
             41.31,365.05 31.15,383.82 48.00,396.00
             48.71,388.22 50.99,383.80 58.00,380.00
             58.00,380.00 61.96,407.00 61.96,407.00
             61.96,407.00 55.00,435.00 55.00,435.00
             55.00,435.00 79.00,419.00 79.00,419.00
             78.64,435.32 68.94,451.15 63.00,466.00
             63.00,466.00 87.00,453.00 87.00,453.00
             87.00,453.00 86.37,461.00 86.37,461.00
             87.30,477.95 101.47,494.85 110.00,509.00
             110.00,509.00 109.00,491.00 109.00,491.00
             109.00,491.00 111.00,471.00 111.00,471.00
             111.00,471.00 115.45,484.00 115.45,484.00
             120.47,496.43 131.48,510.66 144.00,516.00
             139.79,504.97 134.77,504.33 136.00,490.00
             150.69,496.56 158.82,509.98 158.82,526.00
             158.82,526.00 157.00,542.00 157.00,542.00
             166.42,533.77 169.99,517.04 170.00,505.00
             177.60,515.63 180.00,529.19 180.00,542.00
             186.38,538.71 190.26,530.97 191.00,524.00
             199.18,538.70 201.05,545.13 220.00,546.00
             215.90,538.63 212.08,539.82 211.00,527.00
             211.00,527.00 235.00,543.95 235.00,543.95
             235.00,543.95 252.00,555.00 252.00,555.00
             252.00,555.00 255.00,555.00 255.00,555.00
             250.77,545.02 247.43,547.00 245.00,529.00
             252.59,535.98 261.99,545.14 272.00,548.00
             272.00,548.00 272.00,532.00 272.00,532.00
             272.00,532.00 286.00,538.26 286.00,538.26
             286.00,538.26 304.00,549.00 304.00,549.00
             303.89,537.38 299.87,537.07 297.00,527.00
             308.09,534.88 318.69,548.91 332.00,551.00
             330.84,542.18 328.90,534.18 338.00,529.00
             338.00,529.00 345.47,546.00 345.47,546.00
             345.47,546.00 348.00,564.00 348.00,564.00
             359.71,557.71 363.01,546.33 368.00,535.00
             371.26,544.77 374.55,551.52 372.00,562.00
             374.12,561.36 374.89,561.33 376.62,559.69
             380.41,556.09 387.39,537.07 390.00,531.00
             392.44,534.86 393.88,538.58 397.10,541.96
             404.08,549.26 412.81,550.34 422.00,553.00
             419.58,548.30 416.61,546.85 413.18,543.00
             408.26,537.46 405.67,532.38 405.00,525.00
             420.09,539.75 436.71,542.00 457.00,542.00
             457.00,542.00 443.00,526.00 443.00,526.00
             446.65,524.97 450.13,523.07 454.00,523.09
             462.29,523.13 467.96,531.87 470.00,539.00
             475.09,531.14 472.46,516.53 470.00,508.00
             480.27,515.37 482.31,525.47 490.00,528.00
             490.00,528.00 491.88,514.00 491.88,514.00
             491.97,511.93 491.26,508.36 493.40,507.13
             496.39,505.40 500.25,509.54 505.00,510.61
             513.05,512.41 529.59,507.87 534.00,501.00
             521.46,500.99 517.27,498.20 513.00,486.00
             530.57,486.00 530.43,486.28 545.00,496.00
             545.00,496.00 545.82,481.00 545.82,481.00
             546.58,470.23 541.12,461.48 534.00,454.00
             542.16,454.18 544.78,456.14 551.00,456.67
             561.34,457.57 572.13,452.06 577.00,443.00
             570.46,441.51 555.92,436.31 556.12,428.00
             556.25,422.90 564.00,416.88 569.00,417.61
             572.34,418.11 574.11,420.52 576.00,423.00
             578.31,416.06 572.41,401.45 568.00,396.00
             579.58,393.29 581.99,400.77 591.00,405.00
             593.26,395.72 591.70,388.81 588.66,380.00
             587.23,375.87 583.89,368.22 584.23,364.00
             584.54,360.30 587.94,356.09 592.00,357.40
             597.04,359.03 603.69,371.20 606.08,376.00
             607.83,371.38 606.62,367.71 606.08,363.00
             605.60,357.02 606.98,349.31 603.28,344.10
             598.42,337.28 591.31,340.28 590.00,329.00
             590.00,329.00 609.00,337.00 609.00,337.00
             608.85,320.25 599.09,311.81 590.00,299.00
             598.97,304.04 602.21,306.44 608.00,315.00
             608.00,315.00 610.00,307.00 610.00,307.00
             610.00,307.00 608.52,292.00 608.52,292.00
             608.52,292.00 591.00,266.00 591.00,266.00
             599.37,268.03 610.25,268.76 612.00,258.00
             599.56,256.05 599.20,250.32 590.00,246.00
             597.92,242.31 606.66,244.21 611.00,237.00
             598.02,234.87 593.24,223.38 586.00,214.00
             593.82,214.00 598.51,213.19 606.00,216.00
             603.29,204.62 596.25,202.89 589.46,194.96
             589.46,194.96 575.00,173.00 575.00,173.00
             575.00,173.00 597.00,184.00 597.00,184.00
             593.47,171.52 583.21,151.99 572.00,145.12
             567.04,142.08 561.62,141.06 556.00,140.00
             567.59,133.59 569.98,136.72 581.00,142.00
             575.80,124.20 556.22,110.35 538.00,117.00
             545.70,105.34 546.00,107.02 546.00,93.00
             539.39,96.11 533.92,103.64 526.00,103.63
             517.13,103.62 511.81,93.25 500.00,92.00
             505.84,84.37 507.96,83.41 517.00,86.00
             515.24,82.59 514.13,81.67 511.00,79.44
             492.31,66.11 480.07,80.25 464.00,81.00
             474.02,74.23 478.51,67.37 475.00,55.00
             470.95,56.87 467.60,60.36 463.00,60.77
             457.40,61.27 448.39,56.61 443.00,54.70
             433.84,51.44 425.68,50.00 416.00,50.00
             422.47,46.01 426.47,43.30 431.00,37.00
             428.62,37.53 425.28,38.60 423.00,38.65
             411.99,38.87 399.72,29.81 383.00,30.00
             374.72,30.10 372.83,31.84 366.00,36.00
             369.01,23.32 375.24,25.17 379.00,16.00
             372.29,16.31 364.13,17.55 358.00,20.31
             358.00,20.31 329.00,38.00 329.00,38.00
             334.95,27.51 336.30,18.89 330.13,8.00
             328.32,4.81 327.17,2.89 324.00,1.00 Z
           M 184.00,63.00
           C 184.00,63.00 184.00,64.00 184.00,64.00
             184.00,64.00 183.00,63.00 183.00,63.00
             183.00,63.00 184.00,63.00 184.00,63.00 Z
           M 211.00,526.00
           C 211.00,526.00 211.00,527.00 211.00,527.00
             211.00,527.00 210.00,526.00 210.00,526.00
             210.00,526.00 211.00,526.00 211.00,526.00 Z
           M 310.00,541.00
           C 310.00,541.00 310.00,542.00 310.00,542.00
             310.00,542.00 311.00,541.00 311.00,541.00
             311.00,541.00 310.00,541.00 310.00,541.00 Z
           M 254.00,557.00
           C 254.00,557.00 254.00,558.00 254.00,558.00
             254.00,558.00 255.00,557.00 255.00,557.00
             255.00,557.00 254.00,557.00 254.00,557.00 Z
           M 345.00,560.00
           C 345.00,560.00 345.00,561.00 345.00,561.00
             345.00,561.00 346.00,560.00 346.00,560.00
             346.00,560.00 345.00,560.00 345.00,560.00 Z
           M 368.00,562.00
           C 368.00,562.00 368.00,563.00 368.00,563.00
             368.00,563.00 369.00,562.00 369.00,562.00
             369.00,562.00 368.00,562.00 368.00,562.00 Z" />
</svg>
