<?xml version="1.0" encoding="UTF-8" standalone="no"?>
<!DOCTYPE svg PUBLIC "-//W3C//DTD SVG 20010904//EN"
              "http://www.w3.org/TR/2001/REC-SVG-20010904/DTD/svg10.dtd">

<svg xmlns="http://www.w3.org/2000/svg"
     width="2.04333in" height="2.66667in"
     viewBox="0 0 613 800">
  <path id="Selection #1"
        fill="none" stroke="black" stroke-width="1"
        d="M 297.00,527.00
           C 298.89,537.06 303.72,537.86 304.00,549.00
             297.91,543.86 290.72,539.20 283.00,537.00
             283.00,537.00 291.00,585.00 291.00,585.00
             291.00,585.00 273.04,550.21 273.04,550.21
             273.04,550.21 262.00,542.56 262.00,542.56
             262.00,542.56 245.00,529.00 245.00,529.00
             246.06,541.91 248.45,544.52 255.00,555.00
             255.00,555.00 253.00,554.00 253.00,554.00
             255.26,560.12 261.96,569.70 265.57,576.00
             273.43,589.70 278.22,599.62 282.27,615.00
             289.71,643.25 284.52,684.99 280.42,714.00
             278.96,724.38 275.62,748.01 271.87,757.00
             268.57,764.90 259.90,768.76 256.00,776.96
             262.95,779.54 266.01,779.32 273.00,776.96
             277.61,775.34 283.08,772.10 288.00,773.07
             293.34,774.14 302.85,780.11 308.00,782.74
             310.70,784.12 314.79,786.31 317.90,785.64
             323.91,784.36 323.50,773.53 330.04,772.64
             333.50,772.16 340.47,776.21 344.00,777.45
             349.66,779.44 355.23,779.40 361.00,778.00
             354.70,769.39 348.80,768.70 343.32,757.00
             339.15,748.08 337.86,729.29 336.83,719.00
             336.83,719.00 335.91,705.00 335.91,705.00
             335.91,705.00 335.01,696.00 335.01,696.00
             335.01,696.00 336.04,683.00 336.04,683.00
             336.04,683.00 336.04,674.00 336.04,674.00
             337.93,655.54 342.40,637.72 347.72,620.00
             347.72,620.00 362.20,578.00 362.20,578.00
             364.28,572.76 372.57,555.13 372.64,551.00
             372.72,546.91 369.69,538.85 368.00,535.00
             368.00,535.00 364.69,542.00 364.69,542.00
             360.16,551.98 356.92,557.25 348.00,564.00
             348.00,564.00 347.00,558.00 347.00,558.00
             347.00,558.00 341.98,572.00 341.98,572.00
             341.98,572.00 336.00,593.00 336.00,593.00
             335.25,588.04 336.31,583.89 336.84,579.00
             336.84,579.00 340.07,549.00 340.07,549.00
             340.89,540.18 342.57,537.39 338.00,529.00
             328.83,532.32 330.60,543.21 332.00,551.00
             332.00,551.00 318.00,545.00 318.00,545.00
             318.00,545.00 317.00,586.00 317.00,586.00
             317.00,586.00 316.00,609.00 316.00,609.00
             314.60,604.08 314.30,590.72 313.91,585.00
             313.91,585.00 312.01,563.00 312.01,563.00
             311.88,557.94 311.07,540.75 309.02,537.00
             306.62,532.64 301.32,529.23 297.00,527.00 Z
           M 292.00,586.00
           C 292.00,586.00 292.00,587.00 292.00,587.00
             292.00,587.00 291.00,586.00 291.00,586.00
             291.00,586.00 292.00,586.00 292.00,586.00 Z" />
</svg>
