<?xml version="1.0" encoding="UTF-8" standalone="no"?>
<!DOCTYPE svg PUBLIC "-//W3C//DTD SVG 20010904//EN"
              "http://www.w3.org/TR/2001/REC-SVG-20010904/DTD/svg10.dtd">

<svg xmlns="http://www.w3.org/2000/svg"
     width="1.60333in" height="1.09667in"
     viewBox="0 0 481 329">
  <path id="Selection"
        fill="none" stroke="black" stroke-width="1"
        d="M 153.00,86.00
           C 148.65,85.83 148.09,86.43 144.58,88.88
             133.17,96.82 137.30,99.43 132.52,107.00
             128.29,113.72 124.59,120.79 121.20,128.00
             121.20,128.00 118.60,133.96 118.60,133.96
             118.60,133.96 104.21,153.17 104.21,153.17
             99.67,159.51 96.31,167.53 89.00,171.00
             88.67,169.26 88.19,165.92 87.02,164.60
             83.85,161.05 77.50,166.45 75.56,169.09
             74.17,170.98 73.70,172.83 73.00,174.98
             65.19,171.21 58.84,170.97 51.00,174.98
             47.01,176.99 45.75,177.54 45.00,182.00
             50.33,181.95 62.63,178.82 66.44,182.82
             67.41,183.84 67.57,184.70 67.27,186.05
             67.27,186.05 60.44,200.00 60.44,200.00
             57.68,207.73 60.84,207.80 59.07,215.00
             59.07,215.00 53.62,235.00 53.62,235.00
             51.17,242.84 45.66,250.90 56.00,256.16
             57.66,257.01 59.16,257.51 61.00,257.79
             72.16,259.49 71.29,255.31 78.99,251.41
             88.34,246.67 92.43,246.00 100.11,237.72
             109.37,227.75 109.01,224.11 114.52,216.25
             116.75,213.07 122.10,207.87 125.00,205.01
             128.56,201.50 133.29,196.90 138.17,195.14
             140.98,194.35 149.58,194.89 153.00,195.14
             155.19,201.95 157.83,198.91 164.00,206.00
             173.44,207.28 165.55,209.00 183.00,209.00
             183.00,209.00 182.46,223.00 182.46,223.00
             182.46,223.00 183.18,235.00 183.18,235.00
             183.18,235.00 174.77,253.91 174.77,253.91
             174.77,253.91 170.00,262.00 170.00,262.00
             164.62,262.76 162.98,264.44 159.69,268.73
             158.73,269.98 157.19,271.79 158.16,273.45
             159.33,275.45 164.88,275.88 167.00,275.96
             171.58,276.14 180.72,274.97 184.13,271.76
             186.25,269.78 185.57,266.92 187.00,263.00
             194.09,266.36 193.49,262.44 194.30,257.00
             194.30,257.00 195.87,249.00 195.87,249.00
             196.46,245.10 198.83,233.21 200.22,230.00
             200.22,230.00 204.96,220.00 204.96,220.00
             204.96,220.00 213.00,194.00 213.00,194.00
             225.59,207.21 223.30,211.09 229.29,219.91
             229.29,219.91 241.58,233.42 241.58,233.42
             243.66,236.63 243.83,241.26 244.74,245.00
             244.74,245.00 247.60,256.00 247.60,256.00
             247.68,261.37 240.83,263.97 241.44,268.78
             241.91,272.57 248.24,272.08 251.00,271.98
             254.61,271.86 264.05,270.42 264.47,265.94
             264.65,264.01 262.72,260.03 262.00,258.00
             272.17,255.66 263.24,245.10 261.00,238.00
             256.50,237.09 252.58,229.15 251.39,224.99
             251.39,224.99 248.74,210.00 248.74,210.00
             247.74,204.22 242.32,191.93 239.00,187.00
             239.00,187.00 247.00,188.83 247.00,188.83
             247.00,188.83 269.00,193.49 269.00,193.49
             269.00,193.49 291.00,195.83 291.00,195.83
             291.00,195.83 303.00,196.68 303.00,196.68
             307.02,196.37 314.48,194.38 318.00,195.60
             322.87,197.28 324.36,201.86 333.00,205.50
             339.46,208.22 347.69,209.10 348.91,209.59
             351.98,210.84 353.02,213.57 355.28,214.38
             359.11,215.75 359.69,211.60 360.00,209.00
             360.00,209.00 367.00,214.00 367.00,214.00
             367.00,214.00 368.76,225.00 368.76,225.00
             368.36,232.79 362.99,246.38 358.79,252.94
             355.82,257.58 344.18,259.32 344.57,266.15
             344.84,270.93 351.45,271.26 355.00,271.49
             358.33,271.71 366.88,271.22 369.02,268.49
             369.97,267.27 370.57,264.54 371.00,263.00
             374.07,265.08 376.35,265.04 377.57,260.94
             378.40,258.17 377.45,255.00 378.88,250.00
             378.88,250.00 388.09,221.09 388.09,221.09
             388.09,221.09 391.00,212.00 391.00,212.00
             394.86,218.70 398.86,223.94 398.75,232.00
             399.05,235.51 399.25,246.17 398.75,249.00
             398.75,249.00 395.78,256.00 395.78,256.00
             395.12,258.03 394.86,260.06 393.84,261.99
             391.83,265.81 389.01,266.81 386.00,272.00
             386.00,272.00 392.28,274.57 392.28,274.57
             395.67,275.43 405.86,275.58 408.43,273.11
             410.16,271.44 409.77,269.31 411.01,267.25
             412.29,265.14 414.45,264.39 415.11,261.88
             415.11,261.88 414.37,250.00 414.37,250.00
             414.37,250.00 415.09,232.00 415.09,232.00
             415.09,232.00 414.62,209.88 414.62,209.88
             414.62,209.88 416.58,199.21 417.75,201.25
             419.61,204.49 421.00,221.00 421.00,221.00
             422.35,212.46 425.38,211.68 426.10,207.00
             426.39,205.09 424.46,189.95 423.64,188.00
             423.64,188.00 418.50,178.00 418.50,178.00
             415.77,168.82 417.89,160.95 418.00,152.00
             418.00,152.00 418.00,137.00 418.00,137.00
             418.02,127.34 418.90,130.45 419.71,124.00
             421.03,115.09 421.28,99.80 419.71,91.00
             417.05,77.24 416.06,80.00 410.55,73.74
             410.55,73.74 406.32,67.72 406.32,67.72
             402.01,63.44 395.68,63.01 390.00,63.04
             390.00,63.04 372.00,63.04 372.00,63.04
             372.00,63.04 360.00,65.01 360.00,65.01
             360.00,65.01 351.00,65.01 351.00,65.01
             344.44,65.97 347.40,66.98 337.00,67.00
             337.00,67.00 316.00,67.00 316.00,67.00
             305.81,66.95 302.97,63.40 298.00,67.00
             291.44,63.54 279.57,65.02 272.00,65.00
             263.38,64.98 267.18,64.60 260.83,62.54
             258.23,61.69 247.93,60.04 245.00,60.00
             233.08,59.86 223.27,64.07 212.00,66.55
             212.00,66.55 188.00,69.41 188.00,69.41
             177.25,71.11 171.62,73.03 162.00,78.35
             157.55,80.81 154.91,81.07 153.00,86.00 Z" />
</svg>
