<?xml version="1.0" encoding="UTF-8" standalone="no"?>
<!DOCTYPE svg PUBLIC "-//W3C//DTD SVG 20010904//EN"
              "http://www.w3.org/TR/2001/REC-SVG-20010904/DTD/svg10.dtd">

<svg xmlns="http://www.w3.org/2000/svg"
     width="5.33333in" height="3in"
     viewBox="0 0 1600 900">
  <path id="Selection"
        fill="none" stroke="black" stroke-width="1"
        d="M 992.00,386.00
           C 992.00,386.00 992.00,604.00 992.00,604.00
             992.00,604.00 996.73,646.00 996.73,646.00
             996.73,646.00 1012.60,731.00 1012.60,731.00
             1017.17,753.65 1026.53,788.64 1034.81,810.00
             1039.70,822.61 1044.42,833.68 1060.00,833.29
             1073.72,832.94 1077.67,821.76 1082.28,811.00
             1091.46,789.56 1099.24,755.22 1104.87,732.00
             1104.87,732.00 1110.40,705.00 1110.40,705.00
             1110.40,705.00 1119.25,658.00 1119.25,658.00
             1121.51,644.39 1125.98,613.91 1126.00,601.00
             1126.00,601.00 1126.00,386.00 1126.00,386.00
             1132.95,385.91 1134.86,385.49 1135.00,378.00
             1135.19,367.60 1135.36,366.14 1128.00,366.00
             1128.00,366.00 1084.00,366.00 1084.00,366.00
             1084.00,366.00 992.00,366.00 992.00,366.00
             981.03,366.02 985.52,368.25 979.90,369.84
             979.90,369.84 962.00,369.84 962.00,369.84
             941.23,369.97 940.15,364.21 924.00,357.00
             924.85,350.18 916.29,346.58 911.00,344.00
             911.00,344.00 929.33,316.00 929.33,316.00
             931.13,313.31 935.59,307.72 934.37,304.38
             933.62,302.31 929.82,300.20 928.00,299.00
             928.00,299.00 913.00,289.05 913.00,289.05
             913.00,289.05 854.00,250.67 854.00,250.67
             854.00,250.67 837.00,239.62 837.00,239.62
             834.82,238.39 832.02,236.64 829.52,238.04
             827.47,239.18 824.14,244.85 822.81,247.00
             822.81,247.00 811.69,264.00 811.69,264.00
             810.55,265.77 807.90,270.41 806.47,271.55
             801.55,275.50 796.66,265.67 791.18,268.13
             788.41,269.37 782.40,278.84 782.59,281.91
             782.81,285.62 791.00,290.05 794.00,291.95
             794.00,291.95 830.00,315.33 830.00,315.33
             830.00,315.33 887.00,352.42 887.00,352.42
             887.00,352.42 912.00,368.35 912.00,368.35
             915.32,369.61 916.53,368.46 920.00,369.83
             924.40,371.57 930.14,376.60 941.00,379.98
             953.32,383.80 961.50,382.98 974.00,383.00
             986.21,383.02 980.90,385.86 992.00,386.00 Z
           M 931.00,305.00
           C 931.00,305.00 909.00,341.00 909.00,341.00
             901.38,338.78 891.09,330.55 884.00,326.05
             884.00,326.05 833.00,293.00 833.00,293.00
             833.00,293.00 816.00,281.69 816.00,281.69
             813.97,280.36 810.37,278.54 810.01,275.90
             809.64,273.12 814.08,267.41 815.66,265.00
             815.66,265.00 831.00,241.00 831.00,241.00
             831.00,241.00 863.00,261.00 863.00,261.00
             863.00,261.00 900.00,285.00 900.00,285.00
             900.00,285.00 931.00,305.00 931.00,305.00 Z
           M 914.00,365.00
           C 914.00,365.00 865.00,333.67 865.00,333.67
             865.00,333.67 831.00,311.42 831.00,311.42
             831.00,311.42 812.00,299.05 812.00,299.05
             812.00,299.05 788.42,283.39 788.42,283.39
             785.73,280.28 789.61,273.58 793.18,272.87
             795.89,272.33 800.82,275.92 803.00,277.43
             803.00,277.43 824.00,291.33 824.00,291.33
             824.00,291.33 896.00,338.33 896.00,338.33
             896.00,338.33 913.00,349.06 913.00,349.06
             915.09,350.38 918.56,352.34 918.76,355.09
             918.93,357.45 915.27,362.73 914.00,365.00 Z
           M 983.00,374.00
           C 983.00,374.00 983.00,379.00 983.00,379.00
             966.27,379.00 949.50,380.83 934.00,373.24
             930.96,371.76 922.48,367.65 921.17,364.70
             920.20,362.51 921.59,360.13 926.00,362.11
             933.03,365.27 937.11,369.34 946.00,371.96
             955.26,374.68 972.86,374.00 983.00,374.00 Z
           M 1131.00,369.00
           C 1131.00,369.00 1131.00,382.00 1131.00,382.00
             1131.00,382.00 987.00,382.00 987.00,382.00
             987.00,382.00 987.00,369.00 987.00,369.00
             987.00,369.00 1131.00,369.00 1131.00,369.00 Z
           M 996.00,386.00
           C 996.00,386.00 1114.00,386.00 1114.00,386.00
             1122.64,386.02 1122.98,386.36 1123.00,395.00
             1123.00,395.00 1123.00,452.00 1123.00,452.00
             1123.00,452.00 1123.00,590.00 1123.00,590.00
             1123.00,590.00 1121.96,601.00 1121.96,601.00
             1121.96,601.00 1121.96,611.00 1121.96,611.00
             1121.96,611.00 1113.59,668.00 1113.59,668.00
             1107.56,703.94 1095.65,761.03 1084.33,795.00
             1080.11,807.69 1074.18,831.52 1057.00,829.80
             1045.05,828.61 1040.95,815.53 1037.20,806.00
             1030.07,787.85 1019.58,746.75 1015.60,727.00
             1015.60,727.00 999.87,642.00 999.87,642.00
             999.87,642.00 996.00,606.00 996.00,606.00
             996.00,606.00 996.00,386.00 996.00,386.00 Z" />
</svg>
