<?xml version="1.0" encoding="UTF-8" standalone="no"?>
<!DOCTYPE svg PUBLIC "-//W3C//DTD SVG 20010904//EN"
              "http://www.w3.org/TR/2001/REC-SVG-20010904/DTD/svg10.dtd">

<svg xmlns="http://www.w3.org/2000/svg"
     width="2.04333in" height="2.66667in"
     viewBox="0 0 613 800">
  <path id="Selection"
        fill="none" stroke="black" stroke-width="1"
        d="M 287.00,347.00
           C 287.55,349.02 288.77,352.66 290.61,356.00
             292.69,359.78 295.46,363.26 297.00,365.00
             297.00,365.00 293.00,356.00 293.00,356.00
             293.00,356.00 295.56,356.25 300.00,362.00
             300.22,360.48 295.00,353.00 295.00,353.00
             299.53,355.21 300.14,356.42 302.00,361.00
             302.00,361.00 302.91,359.75 302.44,356.94
             301.91,353.77 299.50,351.00 300.00,349.00
             300.00,349.00 306.00,353.38 307.75,365.75
             307.75,365.75 310.60,363.03 314.00,361.18
             317.71,359.16 322.00,358.00 322.00,358.00
             322.00,358.00 307.87,370.09 308.83,372.00
             309.52,373.26 316.85,368.87 321.87,369.13
             326.31,369.36 329.00,372.00 329.00,372.00
             329.00,372.00 324.83,371.90 322.17,372.57
             318.89,373.39 317.00,375.00 317.00,375.00
             317.00,375.00 315.83,375.00 310.22,379.17
             304.61,383.35 298.48,376.69 288.00,376.09
             288.00,376.09 270.00,378.00 270.00,378.00
             274.36,371.43 279.84,374.23 282.22,371.43
             282.54,370.75 282.54,369.87 282.04,369.04
             281.60,367.54 278.78,366.47 278.27,366.38
             277.76,366.28 276.07,366.00 274.98,366.09
             273.89,366.18 270.52,365.09 281.50,364.38
             281.50,364.38 280.19,359.81 280.12,359.69
             279.67,358.73 278.94,358.94 278.00,355.50
             277.06,351.00 277.00,348.00 277.00,348.00
             277.00,348.00 278.63,351.59 280.19,354.19
             281.31,356.06 282.50,357.19 282.50,357.19
             282.50,357.19 282.00,348.00 282.00,348.00
             288.18,357.52 284.01,360.60 292.00,368.00
             290.94,356.30 284.12,354.87 287.00,347.00 Z
           M 295.00,352.00
           C 295.00,352.00 295.00,353.00 295.00,353.00
             295.00,353.00 294.00,352.00 294.00,352.00
             294.00,352.00 295.00,352.00 295.00,352.00 Z" />
</svg>
