<?xml version="1.0" encoding="UTF-8" standalone="no"?>
<!DOCTYPE svg PUBLIC "-//W3C//DTD SVG 20010904//EN"
              "http://www.w3.org/TR/2001/REC-SVG-20010904/DTD/svg10.dtd">

<svg xmlns="http://www.w3.org/2000/svg"
     width="68.2508mm" height="148.635mm"
     viewBox="0 0 270 588">
  <path id="Selection"
        fill="none" stroke="black" stroke-width="1"
        d="M 99.00,0.00
           C 99.00,0.00 99.00,41.00 99.00,41.00
             99.00,41.00 203.00,41.00 203.00,41.00
             203.00,41.00 203.00,0.00 203.00,0.00
             203.00,0.00 99.00,0.00 99.00,0.00 Z
           M 199.00,4.00
           C 199.00,4.00 199.00,37.00 199.00,37.00
             199.00,37.00 103.00,37.00 103.00,37.00
             103.00,37.00 103.00,4.00 103.00,4.00
             103.00,4.00 199.00,4.00 199.00,4.00 Z
           M 74.00,42.15
           C 57.02,45.73 49.24,58.22 39.35,71.00
             39.35,71.00 13.12,104.00 13.12,104.00
             5.95,113.31 0.15,119.55 0.00,132.00
             0.00,132.00 0.00,285.00 0.00,285.00
             0.00,285.00 0.00,563.00 0.00,563.00
             0.01,566.64 -0.12,569.47 1.11,573.00
             3.25,579.15 8.85,584.75 15.00,586.89
             19.38,588.42 25.31,588.00 30.00,588.00
             30.00,588.00 57.00,588.00 57.00,588.00
             57.00,588.00 245.00,588.00 245.00,588.00
             248.66,587.99 251.46,588.12 255.00,586.89
             274.23,580.24 270.00,557.96 270.00,542.00
             270.00,542.00 270.00,393.00 270.00,393.00
             270.00,393.00 270.00,118.00 270.00,118.00
             269.99,110.52 269.21,107.18 267.37,100.00
             258.51,65.40 228.66,42.42 193.00,42.15
             193.00,42.15 117.00,42.15 117.00,42.15
             117.00,42.15 74.00,42.15 74.00,42.15 Z
           M 78.00,47.10
           C 78.00,47.10 117.00,47.10 117.00,47.10
             117.00,47.10 188.00,47.10 188.00,47.10
             230.72,47.07 264.49,77.44 265.00,121.00
             265.00,121.00 265.00,278.00 265.00,278.00
             265.00,278.00 265.00,560.00 265.00,560.00
             264.99,563.45 265.08,566.66 264.01,570.00
             260.58,580.72 252.02,582.98 242.00,583.00
             242.00,583.00 210.00,583.00 210.00,583.00
             210.00,583.00 28.00,583.00 28.00,583.00
             11.20,582.97 5.03,575.31 5.00,559.00
             5.00,559.00 5.00,455.00 5.00,455.00
             5.00,455.00 5.00,137.00 5.00,137.00
             5.03,119.33 13.95,112.07 24.40,99.00
             24.40,99.00 56.29,59.01 56.29,59.01
             62.76,51.77 68.62,48.85 78.00,47.10 Z
           M 85.00,69.47
           C 70.06,73.00 56.28,87.40 47.00,99.00
             42.23,104.96 26.23,124.27 24.13,130.00
             22.88,133.43 23.01,136.44 23.00,140.00
             23.00,140.00 23.00,248.00 23.00,248.00
             23.01,252.91 23.08,257.51 25.44,262.00
             30.49,271.63 42.37,275.94 52.00,270.47
             59.18,266.39 70.11,250.19 75.65,243.00
             81.54,235.36 96.89,217.19 99.21,209.00
             100.10,205.87 100.00,203.20 99.84,200.00
             99.84,200.00 99.84,114.00 99.84,114.00
             99.84,114.00 99.84,81.00 99.84,81.00
             97.91,72.43 93.87,68.43 85.00,69.47 Z
           M 85.00,75.39
           C 93.92,74.50 93.61,79.92 94.86,87.00
             94.86,87.00 94.86,123.00 94.86,123.00
             94.86,123.00 94.86,183.00 94.86,183.00
             95.00,193.48 96.36,204.75 90.45,214.00
             90.45,214.00 66.13,246.00 66.13,246.00
             62.96,250.19 54.62,261.72 50.96,264.35
             43.69,269.58 34.53,266.76 30.44,259.00
             28.09,254.54 28.01,249.89 28.00,245.00
             28.00,245.00 28.00,144.00 28.00,144.00
             28.01,139.75 27.98,136.04 29.61,132.00
             31.83,126.53 46.65,108.70 51.20,103.00
             59.45,92.65 71.99,79.24 85.00,75.39 Z" />
</svg>
