<?xml version="1.0" encoding="UTF-8" standalone="no"?>
<!DOCTYPE svg PUBLIC "-//W3C//DTD SVG 20010904//EN"
              "http://www.w3.org/TR/2001/REC-SVG-20010904/DTD/svg10.dtd">

<svg xmlns="http://www.w3.org/2000/svg"
     width="1.49667in" height="1.07in"
     viewBox="0 0 449 321">
  <path id="Unnamed"
        fill="none" stroke="black" stroke-width="1"
        d="M 337.45,235.09
           C 336.69,235.70 335.92,239.45 336.00,240.18
             336.08,240.91 337.48,244.66 339.30,244.73
             341.11,244.80 342.79,244.17 343.09,242.55
             343.39,240.92 342.81,236.44 341.66,235.88
             340.53,235.02 338.22,234.48 337.45,235.09 Z
           M 333.44,247.81
           C 331.50,248.06 329.69,249.50 329.38,251.81
             329.19,254.94 331.62,257.19 334.38,257.12
             337.00,256.62 339.12,253.00 338.81,250.88
             338.50,248.75 335.38,247.56 333.44,247.81 Z
           M 344.00,252.88
           C 345.62,251.75 347.75,252.06 350.25,252.75
             352.75,253.44 354.25,254.44 354.56,256.00
             354.88,257.56 354.81,259.44 353.38,260.62
             351.38,261.62 349.56,262.44 347.38,261.00
             345.62,259.56 343.75,259.69 343.38,256.69
             343.31,256.69 342.38,254.00 344.00,252.88 Z
           M 331.69,261.38
           C 331.20,262.27 331.22,262.98 331.38,264.50
             331.64,266.71 335.09,270.16 336.07,270.44
             337.04,270.73 339.47,270.56 340.56,269.75
             341.13,269.09 341.40,266.67 341.12,265.31
             340.80,264.13 337.80,261.14 337.00,260.81
             336.20,260.49 332.33,260.40 331.69,261.38 Z
           M 49.53,27.00
           C 49.59,26.01 49.80,25.05 49.53,24.02
             49.28,14.97 35.94,21.14 42.43,27.46
             43.56,28.56 44.32,28.63 45.00,29.00
             45.00,29.00 49.13,29.13 49.53,27.00 Z
           M 56.00,44.99
           C 56.00,46.10 54.97,46.03 56.00,47.00
             57.03,47.69 61.04,48.66 63.91,44.84
             64.34,43.56 64.84,40.54 63.94,39.31
             63.04,38.09 59.08,36.30 58.00,41.00
             58.00,41.00 56.00,43.25 56.00,44.99 Z
           M 78.18,49.73
           C 77.00,53.46 78.19,54.94 78.19,54.94
             78.92,56.55 80.30,57.82 82.00,58.34
             88.57,60.35 90.04,48.94 83.90,46.92
             82.03,46.20 79.36,46.17 78.18,49.73 Z
           M 199.00,65.00
           C 199.00,65.00 199.00,66.00 199.00,66.00
             199.00,66.00 200.00,65.00 200.00,65.00
             200.00,65.00 199.00,65.00 199.00,65.00 Z
           M 208.88,83.12
           C 216.94,78.87 216.67,72.27 207.70,73.95
             207.42,74.00 206.63,75.10 206.63,75.10
             206.63,75.10 205.96,76.17 205.90,76.32
             205.83,76.48 204.99,77.75 204.99,77.75
             204.99,77.75 204.44,79.25 204.44,79.31
             204.44,79.38 204.69,81.75 204.69,81.75
             204.69,81.75 206.62,82.81 206.62,82.81
             206.62,82.81 208.88,83.12 208.88,83.12 Z
           M 222.00,80.00
           C 215.44,70.25 207.90,90.01 219.00,86.07
             219.00,86.07 220.87,85.16 221.38,84.44
             221.89,83.73 222.38,81.24 222.00,80.00 Z
           M 385.00,81.59
           C 377.30,76.88 374.67,88.11 382.01,90.60
             383.81,91.21 385.15,90.74 386.52,89.53
             387.21,88.91 387.12,88.28 387.22,86.72
             387.31,85.19 385.00,81.59 385.00,81.59 Z
           M 371.31,93.02
           C 366.22,98.59 373.10,103.38 377.89,100.81
             384.08,97.49 379.98,89.82 371.31,93.02 Z
           M 224.22,96.97
           C 221.59,96.16 219.79,96.84 219.40,99.22
             218.69,103.56 224.22,107.50 227.37,104.39
             228.41,103.35 226.84,97.78 224.22,96.97 Z
           M 244.35,105.89
           C 245.55,106.81 246.85,107.65 248.03,107.89
             252.35,108.75 254.88,104.07 252.38,102.03
             250.56,100.53 247.52,101.38 245.04,102.27
             244.36,102.51 243.50,105.23 244.35,105.89 Z
           M 368.19,111.72
           C 367.69,112.09 362.35,120.20 368.06,121.09
             370.01,121.39 372.84,120.31 373.56,117.62
             374.28,114.94 373.09,111.84 371.44,111.13
             370.91,110.82 368.71,111.33 368.19,111.72 Z
           M 257.12,106.03
           C 257.25,107.91 258.45,109.19 261.01,109.63
             266.50,110.57 268.82,103.92 262.94,102.16
             261.58,101.94 258.28,102.12 257.12,106.03 Z
           M 230.00,111.00
           C 225.65,104.46 222.32,112.88 225.74,116.40
             227.21,117.92 229.69,117.49 230.22,117.13
             230.76,116.78 231.11,115.13 231.02,114.07
             230.93,113.00 230.00,111.00 230.00,111.00 Z
           M 248.00,117.00
           C 247.45,116.15 247.23,115.39 246.32,114.63
             239.02,108.52 239.90,128.48 247.31,122.37
             247.96,121.83 248.24,121.24 248.56,120.66
             248.66,120.11 248.26,117.51 248.00,117.00 Z
           M 363.00,140.00
           C 364.22,139.19 366.28,136.44 365.72,134.44
             365.16,132.44 361.97,132.47 361.97,132.47
             361.97,132.47 359.28,132.31 357.72,133.50
             355.64,135.00 356.91,139.65 359.00,140.06
             361.09,140.48 361.94,140.34 363.00,140.00 Z
           M 366.62,162.62
           C 368.01,164.44 371.74,164.58 372.33,160.17
             372.53,158.65 370.62,156.06 369.66,156.09
             368.69,156.12 365.22,160.78 366.62,162.62 Z
           M 364.00,156.21
           C 362.47,156.04 360.57,155.98 359.11,156.21
             352.07,158.59 356.07,168.16 361.57,162.67
             362.35,161.90 362.86,160.99 363.26,159.98
             363.81,158.62 363.84,157.41 364.00,156.21 Z
           M 0.00,178.00
           C 11.82,178.26 60.71,186.43 75.00,189.00
             75.00,189.00 117.07,201.91 127.00,202.00
             127.00,202.00 129.12,201.72 130.45,202.70
             132.28,204.05 143.24,204.89 146.00,204.99
             146.00,204.99 174.00,206.99 174.00,206.99
             174.00,206.99 195.00,206.03 195.00,206.03
             214.40,205.65 233.72,206.99 253.00,209.06
             253.00,209.06 239.82,219.09 230.91,226.55
             222.00,234.00 200.00,257.09 194.00,266.00
             188.00,274.91 179.09,295.45 179.09,295.64
             179.09,295.82 171.82,314.91 171.45,320.91
             171.45,320.91 172.36,320.55 179.09,320.00
             184.73,299.82 194.18,276.55 201.09,268.00
             209.09,257.27 221.45,245.09 221.82,244.55
             222.18,244.00 236.73,230.09 244.91,223.27
             251.45,217.27 263.00,209.06 263.00,209.06
             271.84,210.37 300.72,217.26 309.00,220.24
             309.00,220.24 326.00,228.13 326.00,228.13
             326.00,228.13 338.00,232.31 338.00,232.31
             338.00,232.31 367.00,246.11 367.00,246.11
             367.00,246.11 388.00,256.77 388.00,256.77
             390.84,257.83 394.47,258.65 397.00,260.08
             400.37,262.00 402.55,264.89 406.00,266.07
             406.00,266.07 415.00,267.22 415.00,267.22
             415.00,267.22 426.00,271.54 426.00,271.54
             426.00,271.54 435.00,274.29 435.00,274.29
             438.12,275.18 445.20,276.49 447.26,278.70M 203.00,78.00
           C 206.86,67.41 196.30,69.71 193.51,72.51
             190.74,75.29 191.25,78.58 192.00,82.00
             192.00,82.00 201.00,80.00 201.00,80.00
             201.00,80.00 203.30,77.93 203.00,78.00 Z
           M 231.00,84.00
           C 232.29,75.12 227.14,74.80 224.00,80.00
             223.31,81.04 222.98,81.96 223.00,84.00
             223.93,87.31 227.92,86.44 229.00,86.00
             230.08,85.56 231.00,84.00 231.00,84.00 Z
           M 202.84,96.00
           C 203.40,95.11 203.55,94.31 203.11,93.11
             200.42,83.46 185.25,96.44 197.02,98.19
             198.16,98.53 199.38,98.51 200.05,98.28
             200.72,98.04 202.22,96.76 202.84,96.00 Z
           M 200.57,99.57
           C 198.66,104.49 199.75,108.56 201.00,109.00
             202.23,109.36 205.78,106.90 208.00,103.00
             208.31,102.33 208.43,100.12 207.88,98.47
             207.44,97.16 206.78,97.03 205.88,96.72
             204.97,96.41 202.81,97.48 202.81,97.48
             202.81,97.48 201.44,98.42 200.57,99.57 Z
           M 209.00,102.00
           C 210.83,98.22 213.05,96.17 214.78,96.59
             216.32,96.97 217.12,101.72 216.75,103.25
             216.38,104.94 215.62,106.12 213.80,107.11
             210.95,107.34 208.97,104.50 208.88,103.99
             208.79,103.48 208.85,102.41 209.00,102.00 Z
           M 215.28,107.44
           C 214.84,108.31 214.76,110.96 214.76,110.96
             215.06,121.46 228.05,110.37 219.73,106.18
             218.37,105.70 217.76,106.05 217.00,106.18
             217.00,106.18 215.77,106.67 215.28,107.44 Z
           M 232.58,111.73
           C 232.62,113.09 233.66,114.56 233.66,114.56
             240.95,121.48 241.46,104.22 233.66,108.05
             232.96,108.62 232.53,110.38 232.58,111.73 Z
           M 241.44,100.13
           C 240.36,98.78 239.53,98.04 238.02,98.07
             228.29,99.72 239.22,110.17 242.00,104.00
             242.00,104.00 242.56,101.56 241.44,100.13 Z
           M 244.03,98.59
           C 245.09,99.40 246.98,99.78 248.88,99.03
             252.73,97.59 253.04,92.98 249.76,91.84
             247.67,91.12 246.09,91.47 244.00,93.00
             241.91,94.53 242.97,97.78 244.03,98.59 Z
           M 235.87,84.64
           C 234.98,83.67 232.45,84.15 231.87,84.29
             231.00,84.64 229.30,85.78 228.86,86.78
             228.42,87.78 228.24,93.02 230.24,93.38
             232.24,93.73 233.97,92.63 234.74,91.97
             235.51,91.31 236.76,85.62 235.87,84.64 Z
           M 244.00,92.27
           C 244.11,90.84 244.39,87.11 243.64,86.53
             242.73,85.82 240.22,85.49 239.00,86.49
             237.78,87.47 237.00,91.00 237.00,91.00
             237.00,91.00 236.13,94.11 237.80,95.00
             238.77,95.59 241.40,94.65 242.50,94.21
             242.81,94.08 243.98,92.59 244.00,92.27 Z
           M 249.53,120.09
           C 249.70,120.47 250.16,121.39 251.30,121.94
             258.21,125.31 255.58,111.72 249.78,115.06
             249.24,115.37 249.04,115.58 248.97,116.09
             248.89,116.61 249.37,119.72 249.53,120.09 Z
           M 66.18,45.36
           C 68.91,48.03 70.59,48.72 73.47,47.31
             76.78,39.91 71.65,32.72 67.00,40.00
             65.97,41.81 65.78,43.22 66.18,45.36 Z
           M 55.09,37.31
           C 55.53,38.19 55.28,39.59 54.84,40.53
             54.03,42.34 53.21,43.21 51.10,43.13
             47.65,42.99 45.32,38.08 47.64,35.78
             49.17,34.26 51.11,34.73 52.73,35.34
             53.98,35.97 54.66,36.44 55.09,37.31 Z
           M 57.03,52.94
           C 52.04,44.08 44.08,52.25 50.31,57.07
             51.49,57.98 53.94,58.38 55.25,57.59
             56.56,56.81 57.28,54.31 57.03,52.94 Z
           M 66.00,58.80
           C 65.58,59.47 63.39,62.06 63.11,62.06
             58.66,62.08 57.68,57.62 58.00,56.00
             58.34,54.28 60.03,52.06 61.75,52.34
             63.81,52.47 66.00,55.00 66.00,55.00
             66.44,55.59 66.49,57.53 66.00,58.80 Z
           M 64.30,62.83
           C 62.93,71.77 71.09,71.91 73.26,68.74
             75.43,65.57 73.28,58.47 66.00,60.00
             66.00,60.00 64.70,61.30 64.30,62.83 Z
           M 38.44,41.11
           C 36.93,41.31 34.09,44.13 34.09,44.13
             34.09,44.13 33.57,47.00 35.13,48.35
             39.64,47.93 40.22,46.87 42.00,45.00
             42.90,43.23 39.96,40.91 38.44,41.11 Z
           M 44.12,38.36
           C 44.78,35.00 44.86,31.81 44.00,31.00
             42.52,29.61 40.34,28.53 39.00,29.00
             37.47,29.81 37.28,32.69 37.00,34.00
             36.72,35.31 38.00,38.00 38.00,38.00
             38.00,38.00 43.66,40.75 44.12,38.36 Z
           M 63.48,34.36
           C 64.57,35.18 65.62,35.47 66.96,35.12
             73.70,33.37 69.68,22.14 64.54,26.61
             63.44,27.56 63.31,28.45 63.00,29.00
             63.00,29.00 62.79,33.83 63.48,34.36 Z
           M 53.75,35.07
           C 57.97,35.36 59.65,33.46 59.65,31.65
             59.65,29.74 60.00,29.87 59.09,28.87
             58.20,27.90 49.96,26.91 52.74,34.36
             52.82,34.57 53.51,35.06 53.75,35.07 Z
           M 28.00,34.00
           C 28.91,36.00 32.62,35.75 34.57,34.74
             34.94,34.59 35.96,33.78 36.00,32.00
             36.00,32.00 35.48,28.30 33.91,27.22
             32.35,26.13 26.74,29.43 28.00,34.00 Z
           M 37.46,59.51
           C 44.88,61.71 44.70,50.00 42.87,49.87
             40.87,49.74 39.48,51.74 38.17,54.00
             37.43,55.70 36.43,57.35 37.46,59.51 Z
           M 20.43,39.26
           C 20.43,39.26 23.91,42.39 23.91,42.39
             23.91,42.39 25.39,43.43 24.61,45.39
             23.52,47.04 22.02,47.57 19.95,47.28
             18.84,47.12 14.79,43.09 14.74,42.74
             14.33,40.01 15.74,39.22 18.04,38.65
             19.87,38.83 20.43,39.26 20.43,39.26 Z
           M 18.41,33.50
           C 20.06,31.92 22.09,31.78 24.94,32.32
             25.87,32.49 26.66,33.34 27.47,35.31
             27.55,35.68 26.98,38.91 25.99,39.01
             24.98,39.21 15.59,37.56 18.41,33.50 Z
           M 28.18,37.49M 18.88,49.59
           C 18.88,49.59 18.51,47.81 18.00,47.00
             18.00,47.00 16.33,44.80 15.00,45.00
             8.05,47.23 10.54,51.07 16.00,53.00
             15.84,53.35 19.09,50.94 18.88,49.59 Z
           M 15.00,61.00
           C 14.18,61.56 13.47,61.81 12.74,62.69
             7.75,68.74 21.10,71.63 19.48,63.30
             19.34,62.54 18.98,61.81 18.60,61.10
             18.40,60.73 14.90,60.55 15.00,61.00 Z
           M 36.00,59.00
           C 36.00,59.00 36.04,56.74 36.04,56.65
             36.04,56.57 35.87,54.59 35.48,53.87
             35.03,53.17 34.07,52.09 33.39,52.00
             33.39,52.00 32.06,52.02 31.61,52.30
             31.16,52.59 30.94,53.44 30.74,54.26
             30.53,55.08 30.72,57.58 30.83,58.04
             30.93,58.51 31.87,60.51 32.43,60.83
             33.00,61.14 34.02,61.08 34.52,60.65
             34.48,60.65 35.69,59.98 36.00,59.00 Z
           M 23.00,57.00
           C 22.22,58.53 18.00,60.09 18.00,60.09
             17.72,60.29 17.09,60.61 15.43,59.61
             13.78,58.61 14.70,55.65 15.83,54.61
             15.96,54.32 19.43,51.57 20.91,51.83
             22.83,52.26 23.84,54.94 23.00,57.00 Z
           M 32.22,67.51
           C 31.41,68.84 30.58,69.82 29.83,69.95
             24.05,70.96 24.24,57.48 30.55,61.65
             31.51,62.28 31.65,63.17 32.44,63.97
             32.44,63.97 33.06,65.84 32.22,67.51 Z
           M 398.25,88.38
           C 398.89,86.74 399.07,85.13 398.26,83.04
             396.56,78.68 389.52,74.83 388.00,83.88
             387.97,84.69 388.34,85.16 389.00,86.00
             389.66,86.84 391.66,90.14 396.00,90.00
             396.00,90.00 397.93,89.22 398.25,88.38 Z
           M 395.12,105.24
           C 399.40,103.33 398.74,99.55 398.69,98.72
             398.03,97.22 396.94,96.75 396.00,96.00
             392.50,94.81 384.90,96.67 390.00,104.00
             390.84,104.97 394.28,105.61 395.12,105.24 Z
           M 390.19,112.24
           C 392.87,111.13 393.40,109.77 392.00,106.00
             390.56,104.66 388.22,104.29 387.49,104.44
             384.32,105.09 380.31,106.44 381.00,110.00
             382.25,111.34 389.57,112.50 390.19,112.24 Z
           M 390.70,121.17
           C 393.04,119.83 389.31,113.53 388.00,113.00
             386.69,112.47 384.00,113.00 384.00,113.00
             380.52,115.37 381.26,116.52 383.00,120.00
             383.00,120.00 385.51,122.00 386.20,122.00
             387.67,122.00 388.35,122.52 390.70,121.17 Z
           M 382.31,120.25
           C 380.32,120.00 377.81,118.88 376.94,121.06
             376.75,124.06 383.67,131.77 384.38,122.88
             384.38,122.88 382.78,120.31 382.31,120.25 Z
           M 381.00,130.19
           C 378.56,128.75 378.31,127.88 374.22,127.72
             371.97,127.63 373.00,133.59 375.25,135.75
             377.10,137.53 379.96,135.97 381.00,133.00
             381.00,133.00 381.69,131.06 381.00,130.19 Z
           M 390.24,127.20
           C 390.60,127.67 395.42,128.88 397.11,127.91
             399.07,126.79 397.27,123.77 396.38,123.02
             395.17,122.00 392.58,122.00 390.77,122.00
             390.49,122.00 389.92,122.50 389.80,123.20
             389.57,124.59 389.89,126.73 390.24,127.20 Z
           M 386.00,136.00
           C 386.00,136.00 382.62,136.41 382.00,138.00
             381.38,139.59 382.31,141.12 383.00,142.00
             383.00,142.00 388.69,145.63 390.12,144.06
             391.01,143.10 390.38,138.48 388.50,137.19
             387.88,136.97 387.53,136.03 386.00,136.00 Z
           M 388.65,134.69
           C 392.58,135.06 391.14,130.58 390.14,128.67
             388.12,127.19 385.56,127.16 384.56,127.91
             383.56,128.66 383.00,131.00 383.00,131.00
             382.37,130.71 384.72,134.31 388.65,134.69 Z
           M 379.02,140.82
           C 368.56,139.00 378.37,153.31 382.44,145.58
             382.93,144.64 383.22,144.22 382.48,142.96
             381.74,141.70 379.02,140.82 379.02,140.82 Z
           M 370.23,110.03
           C 370.55,108.71 370.83,107.40 370.68,106.02
             369.59,95.65 356.11,102.92 364.23,109.16
             365.09,109.83 366.08,110.23 367.10,110.63
             367.42,110.75 370.16,110.35 370.23,110.03 Z
           M 361.50,131.49
           C 362.20,130.77 363.39,129.54 363.39,129.54
             367.78,123.26 355.38,119.58 353.74,126.09
             353.32,127.78 354.06,129.09 355.32,130.16
             356.10,130.83 357.05,131.22 357.99,131.60
             358.33,131.73 361.21,131.79 361.50,131.49 Z
           M 357.61,143.42
           C 354.46,147.86 357.61,148.87 360.75,148.08
             363.32,147.43 365.25,146.31 364.95,143.42
             364.26,142.41 364.12,142.19 363.00,142.00
             361.88,141.81 358.33,142.28 357.61,143.42 Z
           M 383.81,159.88
           C 384.43,160.50 385.72,161.37 386.98,161.40
             391.47,161.48 392.78,157.18 389.68,155.09
             387.58,153.84 384.61,154.59 383.78,155.22
             382.95,155.84 383.19,159.25 383.81,159.88 Z
           M 375.52,153.13
           C 376.92,154.75 381.17,154.93 381.26,154.43
             381.42,153.52 381.24,152.58 380.77,151.98
             379.09,149.91 377.89,149.10 377.03,149.06
             375.85,149.00 374.36,151.79 375.52,153.13 Z
           M 375.13,156.93
           C 373.97,158.38 377.18,162.96 378.64,163.30
             379.50,163.50 380.65,163.65 381.09,162.01
             381.53,160.38 381.12,159.09 380.22,158.19
             379.31,157.28 376.29,155.49 375.13,156.93 Z
           M 317.83,260.30
           C 316.96,259.74 315.17,259.26 314.00,260.17
             312.83,261.09 313.13,263.22 314.65,265.39
             316.17,267.57 318.43,268.04 319.87,267.13
             320.74,266.26 320.22,264.04 320.17,264.04
             319.91,261.65 318.70,260.87 317.83,260.30 Z
           M 423.75,296.00
           C 423.62,296.00 420.12,296.75 418.75,300.25
             418.75,300.25 420.25,305.38 424.88,305.25
             425.38,304.88 429.25,303.88 429.88,299.50
             428.88,294.75 423.88,296.00 423.75,296.00 Z
           M 116.31,117.06
           C 116.12,118.44 117.12,122.62 117.12,122.75
             118.00,124.31 119.19,125.19 119.38,125.19
             120.88,125.31 123.50,123.31 123.94,121.62
             123.94,121.62 124.38,118.31 123.56,117.19
             123.56,117.19 122.53,113.84 120.25,113.66
             118.38,113.72 116.50,115.69 116.31,117.06 Z
           M 83.70,113.74
           C 82.57,114.48 81.52,116.83 81.70,118.04
             81.91,119.22 82.43,121.52 85.48,120.87
             87.00,119.83 87.78,118.52 87.78,118.30
             88.13,116.09 86.57,114.48 86.52,114.48
             86.48,114.48 84.83,113.00 83.70,113.74 Z
           M 118.61,129.52
           C 116.52,130.48 116.26,130.61 116.13,132.09
             116.00,133.57 116.26,136.00 118.30,137.26
             120.04,137.74 122.48,136.26 123.35,134.30
             123.43,131.78 122.22,130.35 122.09,130.35
             121.96,130.35 118.74,129.43 118.61,129.52 Z
           M 112.73,114.64
           C 111.09,112.64 107.55,111.55 104.91,115.64
             103.36,119.91 107.45,122.27 109.82,121.73
             111.91,121.91 113.55,118.91 113.55,118.91
             113.55,118.91 114.36,116.64 112.73,114.64 Z
           M 56.55,268.00
           C 56.55,268.00 54.91,263.09 53.27,263.09
             45.52,263.13 48.36,270.06 49.43,270.96
             50.87,272.39 52.60,272.78 52.78,272.78
             52.96,272.78 58.73,272.73 56.55,268.00 Z
           M 64.34,259.68
           C 61.52,260.24 61.52,260.68 61.21,262.30
             60.90,263.93 62.59,267.18 65.96,267.37
             67.77,267.30 68.08,267.23 69.09,266.05
             70.04,264.72 69.24,262.63 69.24,262.63
             69.24,262.63 68.34,259.93 64.34,259.68 Z
           M 147.45,215.27
           C 146.56,214.84 145.38,214.69 142.55,215.09
             142.55,215.09 140.31,216.03 141.27,218.55
             141.27,218.55 142.97,222.19 147.64,221.27
             149.41,220.75 148.91,216.03 147.45,215.27 Z
           M 127.19,204.62
           C 125.69,205.00 124.19,206.25 123.81,207.69
             123.44,209.12 123.07,212.00 124.50,214.06
             125.60,215.18 128.44,213.25 128.44,213.25
             128.44,213.25 132.18,211.31 132.06,208.50
             132.06,208.50 132.38,206.42 131.06,205.31
             129.75,204.20 128.69,204.25 127.19,204.62 Z
           M 288.25,58.00
           C 287.56,60.34 291.44,62.09 293.69,62.41
             296.91,62.16 299.53,59.78 299.41,57.59
             299.28,55.41 297.50,53.91 294.75,53.25
             290.84,53.12 288.94,55.66 288.25,58.00 Z
           M 0.00,171.00
           C 0.00,171.00 10.00,171.91 10.00,171.91
             10.00,171.91 30.00,173.29 30.00,173.29
             30.00,173.29 41.00,175.54 41.00,175.54
             41.00,175.54 83.00,184.00 83.00,184.00
             83.00,184.00 103.00,189.66 103.00,189.66
             106.79,190.81 109.65,190.62 112.00,194.00
             112.00,194.00 117.00,193.00 117.00,193.00
             117.00,193.00 113.00,181.00 113.00,181.00
             113.00,181.00 111.19,178.00 110.00,174.00
             110.00,174.00 108.00,156.00 108.00,156.00
             105.88,145.50 98.06,121.69 97.31,118.25
             96.56,114.62 89.17,96.18 88.46,94.00
             88.46,94.00 85.77,82.00 85.77,82.00
             84.63,77.14 83.28,76.47 82.54,72.44
             82.29,71.03 82.10,69.22 82.03,66.67
             82.02,66.42 81.66,65.56 81.29,64.66
             80.88,63.68 73.88,59.06 73.88,58.75
             73.88,58.75 72.12,60.31 72.06,60.31
             72.00,60.31 69.62,58.88 69.62,58.88
             69.62,58.88 71.19,57.00 71.19,57.00
             71.19,57.00 70.25,55.12 70.12,55.00
             70.00,54.88 66.38,51.50 66.38,51.50
             66.38,51.50 63.75,51.25 63.75,51.25
             63.75,51.25 63.88,52.62 63.88,52.62
             63.88,52.62 61.12,52.00 61.12,52.00
             61.12,52.00 61.00,51.38 61.00,51.38
             61.00,51.38 58.50,51.50 58.25,51.38
             58.00,51.25 56.25,50.12 56.25,50.12
             56.25,50.12 54.12,48.12 54.12,48.12
             54.12,48.12 52.00,47.12 52.00,47.12
             52.00,47.12 50.38,46.75 49.50,46.88
             48.62,47.00 46.88,47.00 46.88,47.00
             46.88,47.00 46.00,47.00 45.38,46.50
             44.75,46.00 44.00,43.88 43.88,43.62
             43.75,43.38 41.88,41.88 41.88,41.88
             41.88,41.88 40.25,40.88 40.25,40.88
             40.25,40.88 37.91,40.41 37.91,40.41
             37.91,40.41 36.25,40.03 35.78,40.19
             35.31,40.34 33.72,40.88 33.69,40.91
             33.66,40.94 32.55,42.00 32.45,42.36
             32.36,42.73 32.36,44.45 32.36,45.00
             32.36,45.55 32.91,47.09 32.73,47.55
             32.55,48.00 32.27,48.91 32.27,48.91
             32.27,48.91 30.82,48.91 30.64,49.00
             30.45,49.09 29.84,50.59 29.84,50.59
             29.84,50.59 30.74,51.87 30.74,51.87
             30.74,51.87 29.65,54.48 29.65,54.52
             29.65,54.57 28.45,52.82 28.45,52.82
             28.45,52.82 27.18,54.82 27.00,54.91
             26.82,55.00 28.91,59.52 28.91,59.87
             28.91,60.22 26.30,60.09 26.30,60.09
             26.30,60.09 25.45,56.64 25.45,56.64
             25.45,56.64 23.91,56.73 23.91,56.73
             23.91,56.73 23.84,53.25 23.84,53.25
             23.84,53.25 25.78,51.19 25.84,51.19
             25.91,51.19 27.69,49.09 27.72,49.03
             27.75,48.97 26.26,47.43 26.26,47.43
             26.26,47.43 24.17,46.87 24.17,46.87
             24.17,46.87 26.09,44.30 26.17,44.30
             26.26,44.30 28.82,46.64 28.82,46.55
             28.82,46.45 29.18,44.55 29.18,44.55
             29.18,44.55 28.09,43.64 28.00,43.55
             27.91,43.45 26.55,42.64 26.55,42.55
             26.55,42.45 27.27,40.45 27.27,40.45
             27.27,40.45 30.18,40.55 30.18,40.55
             30.18,40.55 32.18,38.91 32.36,38.82
             32.55,38.73 31.57,36.13 31.57,36.13
             31.57,36.13 34.57,35.39 34.57,35.39
             34.57,35.39 34.73,37.91 34.73,37.91
             34.73,37.91 36.73,38.27 36.73,38.36
             36.73,38.45 39.26,39.04 39.30,39.04
             39.35,39.04 42.48,39.96 42.48,40.04
             42.48,40.13 44.52,41.35 44.65,41.61
             44.78,41.87 45.70,43.43 45.91,43.70
             46.13,43.96 47.09,44.30 47.70,44.57
             48.30,44.83 48.50,43.06 48.50,43.06
             48.50,43.06 50.81,43.75 50.81,43.75
             50.81,43.75 50.43,44.87 50.61,44.96
             50.78,45.04 53.04,45.43 53.09,45.48
             53.13,45.52 54.73,46.64 54.73,46.64
             54.73,46.64 56.45,48.00 56.55,48.09
             56.64,48.18 58.91,48.91 58.91,48.91
             58.91,48.91 60.64,49.09 61.82,49.36
             63.00,49.64 65.45,49.55 65.55,49.64
             65.64,49.73 66.75,47.12 66.75,47.12
             66.75,47.12 68.75,48.25 68.75,48.25
             68.75,48.25 68.27,50.27 68.27,50.36
             68.27,50.45 70.82,52.45 70.82,52.45
             70.82,52.45 71.91,54.27 71.91,54.27
             71.91,54.27 73.45,56.18 73.45,56.36
             73.45,56.55 75.55,57.82 75.55,57.82
             75.55,57.82 78.27,60.00 78.27,60.00
             78.27,60.00 80.18,60.82 80.36,60.82
             80.55,60.82 82.18,60.73 82.18,60.73
             82.18,60.73 83.09,59.55 83.09,59.55
             83.09,59.55 85.36,58.91 85.36,59.09
             85.36,59.27 85.36,60.45 85.27,60.64
             85.18,60.82 84.64,62.45 84.55,62.55
             84.45,62.64 84.00,65.00 84.00,65.00
             88.80,74.18 92.92,81.88 95.71,92.00
             96.17,93.69 97.14,96.78 97.25,99.75
             97.36,102.72 99.56,107.50 101.00,114.00
             102.44,120.50 101.88,119.19 102.06,120.25
             102.25,121.31 107.06,133.31 107.62,136.56
             108.19,139.81 108.12,142.56 109.00,149.00
             109.88,155.44 115.07,166.23 116.63,174.72
             116.63,174.72 120.00,186.00 120.00,186.00
             126.25,180.06 126.99,164.79 132.00,161.00
             132.00,161.00 135.00,156.00 135.00,156.00
             135.00,156.00 138.00,147.00 138.00,147.00
             138.00,147.00 139.00,144.00 139.00,144.00
             139.00,144.00 141.00,139.00 141.00,139.00
             143.86,128.58 144.95,129.47 151.00,121.00
             151.00,121.00 152.00,119.00 152.00,119.00
             152.00,119.00 161.42,112.01 161.42,112.01
             161.42,112.01 176.00,99.00 176.00,99.00
             176.00,99.00 178.00,98.00 178.00,98.00
             178.00,98.00 190.11,83.00 190.11,83.00
             191.13,82.71 192.06,82.88 192.06,82.88
             192.06,82.88 199.80,83.09 199.80,83.09
             199.80,83.09 200.27,85.71 200.27,85.69
             200.27,85.67 206.34,88.50 206.31,88.50
             206.28,88.50 210.44,87.00 210.44,86.97
             210.44,86.94 213.59,90.19 213.59,90.19
             213.59,90.19 218.39,90.87 218.39,90.87
             218.39,90.87 222.39,86.57 222.39,86.74
             222.39,86.91 224.48,87.78 224.48,87.78
             224.48,87.78 221.83,91.83 221.83,91.83
             221.83,91.83 227.22,94.57 227.35,94.65
             227.48,94.74 230.61,94.74 230.65,94.78
             230.70,94.83 231.00,96.43 231.00,96.48
             231.00,96.52 233.74,97.83 233.78,97.87
             233.83,97.91 232.59,100.78 232.59,100.78
             232.59,100.78 231.22,99.78 231.22,99.78
             231.22,99.78 227.57,97.70 227.57,97.70
             227.57,97.70 222.08,94.02 222.06,94.06
             218.30,93.51 218.60,96.79 215.52,95.06
             214.41,94.49 214.69,93.34 214.42,93.20
             213.56,92.77 209.41,90.47 209.41,90.47
             209.41,90.47 206.94,92.03 206.94,92.03
             206.94,92.03 207.09,94.31 207.12,94.31
             207.16,94.31 204.94,94.53 204.94,94.53
             204.94,94.53 204.78,91.66 204.78,91.66
             204.78,91.66 199.38,87.59 199.34,87.53
             199.31,87.47 199.00,89.03 199.00,89.03
             199.00,89.03 197.44,89.22 197.41,89.22
             197.38,89.22 197.25,87.88 197.25,87.88
             197.25,87.88 196.75,86.25 196.75,86.25
             196.75,86.25 193.22,86.04 193.22,86.04
             193.22,86.04 190.49,84.21 190.09,86.00
             189.38,90.98 178.73,105.89 174.91,109.82
             174.91,109.82 152.76,128.04 152.76,128.04
             146.25,136.34 148.00,137.29 145.26,146.00
             145.26,146.00 136.14,171.00 136.14,171.00
             132.44,179.95 132.36,178.59 127.77,186.00
             126.50,188.04 125.09,190.38 126.70,192.69
             128.54,195.30 132.27,194.80 135.00,195.21
             145.36,196.76 135.43,197.76 156.00,198.00
             156.00,198.00 174.00,198.87 174.00,198.87
             174.00,198.87 185.00,198.87 185.00,198.87
             185.00,198.87 202.00,198.09 202.00,198.09
             202.00,198.09 212.00,199.00 212.00,199.00
             212.00,199.00 232.00,199.00 232.00,199.00
             232.00,199.00 277.00,204.43 277.00,204.43
             277.00,204.43 316.00,214.69 316.00,214.69
             321.75,216.70 330.14,221.95 335.00,222.00
             336.30,225.15 343.79,226.65 347.00,228.00
             347.00,228.00 372.00,239.52 372.00,239.52
             372.00,239.52 382.00,245.00 382.00,245.00
             382.00,245.00 384.73,247.09 384.73,247.09
             388.62,248.59 400.02,252.74 403.72,250.74
             406.88,249.03 408.51,237.99 409.95,234.00
             409.95,234.00 424.72,196.00 424.72,196.00
             425.81,192.35 428.81,183.64 427.39,180.15
             425.44,175.36 421.12,178.77 416.00,175.00
             419.07,173.72 425.91,172.79 427.26,171.40
             429.49,169.12 429.14,162.09 428.91,159.00
             427.53,140.11 418.18,137.08 407.11,124.99
             404.78,122.45 398.11,110.61 399.40,107.31
             400.07,105.60 399.45,102.09 399.45,101.82
             399.45,101.55 399.55,98.64 399.55,98.64
             399.55,98.64 397.09,95.91 397.09,95.82
             397.09,95.73 393.91,93.82 393.73,93.73
             393.55,93.64 391.27,93.00 391.27,93.00
             391.27,93.00 387.73,94.36 387.18,94.91
             386.64,95.45 386.18,97.64 386.18,97.91
             386.18,98.18 385.55,101.09 385.55,101.09
             385.55,101.09 384.09,103.36 384.09,103.36
             384.09,103.36 380.18,106.64 380.18,106.64
             380.18,106.64 378.45,109.09 378.45,109.09
             378.45,109.09 378.45,112.00 378.45,112.00
             378.45,112.00 377.27,114.91 377.27,114.91
             377.27,114.91 377.18,118.45 377.18,118.45
             377.18,118.45 375.00,122.09 375.00,122.09
             375.00,122.09 372.73,125.91 372.73,125.91
             372.73,125.91 372.09,129.64 372.09,129.64
             372.09,129.64 373.73,135.00 373.73,135.00
             373.73,135.00 372.36,135.00 372.36,135.00
             372.36,135.00 372.36,139.09 372.36,139.09
             372.36,139.09 373.55,141.36 373.55,141.36
             373.55,141.36 372.91,146.09 372.91,146.09
             372.91,146.09 372.45,148.18 372.45,148.18
             372.45,148.18 374.73,149.27 374.73,149.36
             374.73,149.45 373.18,152.91 373.18,152.91
             373.18,152.91 371.18,151.09 371.18,151.09
             371.18,151.09 370.18,152.09 370.18,152.09
             370.18,152.09 371.27,154.09 371.36,154.18
             371.45,154.27 369.55,154.64 369.55,154.55
             369.55,154.45 368.09,154.64 368.09,154.64
             368.09,154.64 365.73,156.45 365.73,156.45
             365.73,156.45 364.36,155.27 364.36,155.27
             364.36,155.27 367.73,152.45 367.82,152.45
             367.91,152.45 369.72,151.44 369.13,150.19
             368.97,149.81 368.31,148.16 370.00,147.72
             371.69,147.28 369.55,144.73 369.55,144.73
             369.55,144.73 369.09,143.45 369.09,143.45
             369.09,143.45 366.45,144.91 366.45,144.91
             366.45,144.91 366.64,141.73 366.82,141.55
             367.00,141.36 369.73,138.64 369.82,138.55
             369.91,138.45 369.64,134.27 369.64,134.27
             369.64,134.27 367.27,136.27 367.09,136.36
             366.91,136.45 366.73,135.18 366.73,135.18
             366.73,135.18 367.55,133.00 367.55,133.00
             367.55,133.00 369.73,130.27 369.73,130.27
             369.73,130.27 369.64,126.82 369.64,126.82
             369.64,126.82 367.55,127.73 367.00,128.36
             366.45,129.00 367.00,125.91 367.00,125.91
             367.00,125.91 369.82,124.55 369.82,124.55
             369.82,124.55 373.91,119.55 373.91,119.27
             373.91,119.00 374.82,116.55 374.82,116.55
             374.82,116.55 375.73,113.27 375.73,113.27
             375.73,113.27 374.73,111.27 374.73,111.27
             374.73,111.27 374.91,107.91 374.91,107.91
             374.91,107.91 376.55,105.73 376.55,105.73
             376.55,105.73 380.73,102.27 380.73,102.27
             380.73,102.27 383.73,99.36 383.82,99.36
             383.91,99.36 383.45,96.55 383.45,96.45
             383.45,96.36 384.55,94.18 384.64,93.91
             384.73,93.64 388.09,91.00 388.27,90.91
             388.45,90.82 392.00,89.91 392.00,89.91
             392.00,89.91 396.91,90.82 396.91,90.82
             396.91,90.82 399.64,93.09 399.64,93.09
             399.64,93.09 400.45,96.73 400.45,96.73
             400.45,96.73 401.55,100.18 401.55,100.18
             401.55,100.18 401.53,105.48 403.00,105.00
             403.81,107.41 407.46,117.04 408.72,118.68
             409.92,120.23 423.58,131.02 428.60,139.17
             434.70,149.06 432.89,152.40 434.21,162.00
             434.21,162.00 435.51,169.00 435.51,169.00
             435.51,169.00 435.00,182.00 435.00,182.00
             434.86,194.01 424.75,219.21 420.00,231.00
             420.00,231.00 414.19,245.00 414.19,245.00
             413.51,246.73 412.06,249.57 412.46,251.41
             413.22,254.91 418.06,257.27 421.00,258.62
             421.00,258.62 448.00,269.00 448.00,269.00" />
</svg>
