<?xml version="1.0" encoding="UTF-8" standalone="no"?>
<!DOCTYPE svg PUBLIC "-//W3C//DTD SVG 20010904//EN"
              "http://www.w3.org/TR/2001/REC-SVG-20010904/DTD/svg10.dtd">

<svg xmlns="http://www.w3.org/2000/svg"
     width="2.04333in" height="2.66667in"
     viewBox="0 0 613 800">
  <path id="Selection"
        fill="none" stroke="black" stroke-width="1"
        d="M 288.62,297.88
           C 286.88,301.00 284.04,301.65 284.00,315.62
             279.79,308.33 278.09,299.36 269.09,297.36
             264.97,296.85 264.73,296.91 261.00,298.27
             261.16,299.67 266.82,302.80 269.18,305.36
             272.18,308.63 272.00,311.00 272.00,311.00
             272.00,311.00 268.26,307.27 264.00,304.73
             260.01,302.34 256.40,301.82 256.18,303.09
             255.94,304.50 258.59,305.81 261.64,308.45
             264.29,310.76 266.30,313.65 268.55,315.55
             268.55,315.55 262.27,311.73 260.00,313.00
             260.00,313.00 259.52,314.55 261.27,316.55
             265.55,319.00 273.50,327.00 273.50,327.00
             269.62,324.50 260.34,318.31 256.64,317.45
             251.22,316.20 246.60,317.15 245.19,318.19
             242.81,319.94 242.06,322.62 242.06,323.94
             243.03,325.18 248.36,324.53 252.19,325.12
             255.16,325.59 257.66,327.89 259.00,328.00
             259.00,328.00 251.37,329.78 251.37,329.78
             251.37,329.78 245.44,333.38 245.44,333.38
             245.44,333.38 242.50,335.88 240.50,338.50
             238.50,341.12 239.00,346.00 239.00,346.00
             242.68,345.05 248.12,342.25 251.12,340.88
             254.12,339.50 263.00,338.00 263.00,338.00
             257.03,341.48 252.17,340.84 250.00,348.00
             258.61,346.16 256.87,342.15 269.00,342.00
             261.94,347.12 255.60,351.06 252.84,360.00
             251.19,365.34 251.81,370.91 258.00,372.00
             258.07,366.40 259.87,360.70 263.34,356.18
             266.85,351.60 268.78,352.42 271.00,346.00
             271.00,346.00 275.00,348.00 275.00,348.00
             272.35,349.59 270.51,351.17 268.69,353.71
             266.53,356.72 264.36,368.64 264.00,372.73
             263.64,376.82 262.75,387.25 265.00,394.00
             270.50,402.00 269.99,383.47 273.52,377.09
             275.09,374.25 276.76,373.21 277.63,370.05
             278.72,366.13 280.06,355.23 282.49,352.65
             286.09,348.84 290.51,357.43 291.44,360.17
             292.00,361.80 297.33,375.21 296.70,379.91
             296.70,379.91 294.26,402.34 299.00,404.00
             302.05,392.08 303.15,389.86 303.00,377.00
             303.00,377.00 302.00,364.00 302.00,364.00
             305.55,369.96 306.88,370.88 307.50,377.62
             308.12,384.38 310.50,388.25 310.50,388.25
             310.50,388.25 312.00,376.75 311.23,372.00
             310.47,367.25 305.46,357.44 305.46,357.44
             305.46,357.44 299.00,349.00 299.00,349.00
             299.00,349.00 303.31,348.88 307.00,351.00
             310.69,353.12 311.12,354.06 314.88,357.62
             318.62,361.19 319.00,372.00 319.00,372.00
             322.26,370.85 322.56,366.38 322.19,360.56
             321.75,356.94 321.31,357.06 320.38,354.94
             319.44,352.81 309.06,343.88 309.06,343.88
             313.42,340.80 318.66,342.50 324.00,342.98
             326.94,343.48 331.84,344.89 334.43,343.00
             335.00,339.52 333.09,335.65 329.22,334.17
             317.05,330.55 313.39,332.97 302.00,335.00
             306.12,332.09 309.49,328.90 313.64,326.91
             321.45,325.45 326.04,322.68 326.36,320.73
             322.45,315.72 306.26,317.50 301.72,320.85
             297.72,323.80 296.92,325.68 292.00,328.00
             295.92,324.23 300.40,319.73 304.84,316.68
             311.73,311.95 313.00,313.69 314.00,308.00
             304.54,311.19 301.68,314.86 294.00,321.00
             294.00,321.00 308.98,306.62 308.98,306.62
             308.98,306.62 310.00,303.00 310.00,303.00
             300.28,301.81 301.95,302.93 294.00,308.00
             294.00,308.00 294.50,304.25 300.25,300.88
             303.12,299.75 299.38,295.25 299.38,295.25
             296.25,293.62 290.38,294.75 288.62,297.88 Z
           M 299.00,349.00 299.00,349.00 299.00,349.00 299.00,349.00
           M 314.94,362.12M 323.12,354.44M 305.00,294.75M 363.09,332.18M 251.25,418.75" />
</svg>
