<?xml version="1.0" encoding="UTF-8" standalone="no"?>
<!DOCTYPE svg PUBLIC "-//W3C//DTD SVG 20010904//EN"
              "http://www.w3.org/TR/2001/REC-SVG-20010904/DTD/svg10.dtd">

<svg xmlns="http://www.w3.org/2000/svg"
     width="2.01333in" height="1.33667in"
     viewBox="0 0 604 401">
  <path id="Selection"
        fill="none" stroke="black" stroke-width="1"
        d="M 0.00,0.00
           C 0.00,0.00 0.00,401.00 0.00,401.00
             0.00,401.00 604.00,401.00 604.00,401.00
             604.00,401.00 604.00,0.00 604.00,0.00
             604.00,0.00 0.00,0.00 0.00,0.00 Z
           M 333.64,76.18
           C 331.64,81.45 331.16,82.38 329.68,87.00
             328.69,90.09 326.59,99.73 322.83,100.38
             320.38,100.81 314.17,91.99 311.91,89.87
             300.55,81.09 284.36,74.55 272.00,87.25
             274.59,87.00 278.59,86.84 281.00,87.25
             292.00,90.51 301.09,101.89 307.00,111.00
             300.60,106.39 295.24,101.02 287.00,99.71
             282.79,99.04 279.07,98.97 274.91,99.64
             274.91,99.64 266.00,102.68 266.00,102.68
             261.50,104.08 257.06,107.38 253.09,109.83
             244.16,115.34 238.07,116.20 237.00,128.00
             237.00,128.00 259.00,117.97 259.00,117.97
             267.94,115.23 271.23,116.12 279.96,116.78
             287.01,117.31 297.44,117.70 302.25,123.50
             285.25,130.00 280.79,145.90 281.00,158.00
             281.08,162.17 281.04,163.00 284.00,166.00
             284.00,166.00 287.08,159.00 287.08,159.00
             290.94,152.32 295.51,151.39 298.00,143.00
             300.71,152.54 296.67,156.95 303.00,170.00
             303.00,170.00 307.13,174.44 311.00,177.00
             311.00,177.00 310.00,172.00 310.00,172.00
             309.64,166.18 311.49,162.38 310.91,158.00
             310.34,153.69 310.80,147.20 312.00,143.00
             317.08,157.00 316.56,152.81 314.85,168.00
             314.36,172.35 314.73,175.09 313.09,181.82
             311.27,198.18 301.50,216.97 299.00,231.00
             299.00,231.00 298.00,233.00 298.00,233.00
             298.00,233.00 295.00,235.00 295.00,235.00
             295.00,235.00 287.38,247.72 290.51,253.79
             291.52,255.75 293.02,256.70 295.02,257.51
             301.88,260.32 306.53,255.01 308.75,249.00
             311.29,242.11 310.40,238.30 311.35,234.72
             311.35,234.72 318.42,202.00 318.42,202.00
             318.42,202.00 320.36,191.09 320.36,191.09
             321.96,180.25 322.82,168.95 323.00,158.00
             323.10,152.22 324.33,151.28 325.00,146.00
             326.94,148.29 330.17,149.35 330.01,151.96
             330.30,156.91 331.66,157.22 331.70,161.26
             331.70,161.26 331.64,172.55 331.64,172.55
             331.64,172.55 328.36,181.64 328.36,181.64
             328.36,181.64 324.00,189.00 324.00,189.00
             330.80,187.53 327.61,188.63 332.73,184.73
             333.16,184.40 337.09,177.45 337.09,177.45
             337.09,177.45 340.36,170.73 340.36,170.73
             341.64,163.64 339.65,168.59 340.50,165.12
             341.00,160.12 342.50,158.62 340.62,153.25
             340.50,145.62 337.96,141.47 334.00,135.00
             334.00,135.00 353.73,151.48 353.73,151.48
             358.89,156.64 355.98,159.94 365.00,162.00
             365.00,162.00 364.00,149.00 364.00,149.00
             364.00,149.00 369.00,148.00 369.00,148.00
             368.62,145.32 368.25,142.58 366.90,140.18
             365.65,137.95 362.63,135.27 360.68,133.52
             353.26,126.88 345.37,121.89 335.00,124.00
             342.99,118.33 360.34,123.70 366.00,130.00
             366.00,130.00 369.64,134.91 369.64,134.91
             369.64,134.91 374.91,141.00 374.91,141.00
             375.09,136.82 375.86,133.12 374.91,129.00
             373.67,124.42 372.15,122.47 369.05,119.02
             358.98,107.81 350.36,110.72 337.00,110.00
             341.60,97.73 333.64,76.18 333.64,76.18 Z
           M 339.25,144.62M 241.64,184.18" />
</svg>
