<?xml version="1.0" encoding="UTF-8" standalone="no"?>
<!DOCTYPE svg PUBLIC "-//W3C//DTD SVG 20010904//EN"
              "http://www.w3.org/TR/2001/REC-SVG-20010904/DTD/svg10.dtd">

<svg xmlns="http://www.w3.org/2000/svg"
     width="2.04333in" height="2.66667in"
     viewBox="0 0 613 800">
  <path id="Selection #1"
        fill="none" stroke="black" stroke-width="1"
        d="M 278.00,408.00
           C 273.94,413.67 275.97,421.48 276.00,428.00
             276.00,428.00 274.79,452.00 274.79,452.00
             274.79,452.00 273.21,459.00 273.21,459.00
             273.21,459.00 272.00,477.00 272.00,477.00
             271.98,487.22 273.35,492.45 269.00,502.00
             276.80,504.23 290.32,503.00 299.00,503.00
             297.86,500.94 296.81,499.35 296.15,497.00
             296.15,497.00 296.15,476.00 296.15,476.00
             296.15,476.00 294.00,447.00 294.00,447.00
             294.00,447.00 294.00,428.00 294.00,428.00
             294.00,428.00 292.75,413.00 292.75,413.00
             292.50,407.80 294.28,404.45 291.00,400.00
             291.45,399.34 291.98,399.15 292.25,397.85
             292.25,397.85 290.55,386.00 290.55,386.00
             290.55,386.00 289.00,362.00 289.00,362.00
             288.98,359.24 289.27,351.61 284.99,351.74
             280.44,351.88 280.14,360.85 279.97,364.00
             279.97,364.00 278.91,375.00 278.91,375.00
             278.91,375.00 278.91,385.00 278.91,385.00
             278.27,389.59 277.31,389.77 277.00,396.00
             276.76,400.83 275.10,403.99 278.00,408.00 Z" />
</svg>
