<?xml version="1.0" encoding="UTF-8" standalone="no"?>
<!DOCTYPE svg PUBLIC "-//W3C//DTD SVG 20010904//EN"
              "http://www.w3.org/TR/2001/REC-SVG-20010904/DTD/svg10.dtd">

<svg xmlns="http://www.w3.org/2000/svg"
     width="12.4178mm" height="12.9352mm"
     viewBox="0 0 576 600">
  <path id="Unnamed"
        fill="none" stroke="black" stroke-width="1"
        d="M 37.00,243.00
           C 11.00,157.00 116.00,144.00 127.00,166.00
             172.00,76.00 245.00,132.00 251.00,164.00
             350.00,132.00 355.00,236.00 341.00,239.00
             342.00,239.00 320.00,267.00 321.00,267.00
             322.00,267.00 335.00,253.50 343.00,243.50
             419.00,306.50 330.00,360.50 323.00,353.00
             323.00,353.00 53.00,351.00 53.00,351.00
             6.00,343.00 -16.00,280.00 37.00,243.00 Z
           M 346.67,186.00
           C 414.00,138.00 451.33,212.67 448.00,217.33
             544.00,186.00 549.33,288.67 540.00,298.00
             615.33,354.00 535.33,408.67 520.67,407.33
             520.67,407.33 285.00,406.00 257.33,406.00
             223.00,410.00 204.00,363.33 204.00,363.33
             204.00,363.33 387.33,365.33 387.33,365.33
             387.33,365.33 421.33,288.00 420.67,288.00
             420.00,288.00 357.33,204.00 346.67,186.00 Z
           M 72.33,374.00
           C 66.33,387.33 57.33,393.67 39.34,404.17
             23.02,416.79 9.61,433.14 23.00,455.00
             32.67,462.67 47.00,471.33 65.33,453.67
             75.00,445.67 89.67,413.67 72.33,374.00 Z" />
</svg>
