<?xml version="1.0" encoding="UTF-8" standalone="no"?>
<!DOCTYPE svg PUBLIC "-//W3C//DTD SVG 20010904//EN"
              "http://www.w3.org/TR/2001/REC-SVG-20010904/DTD/svg10.dtd">

<svg xmlns="http://www.w3.org/2000/svg"
     width="2.01333in" height="1.33667in"
     viewBox="0 0 604 401">
  <path id="Selection"
        fill="none" stroke="black" stroke-width="1"
        d="M 283.00,108.00
           C 283.00,108.00 280.00,124.00 280.00,124.00
             275.99,119.90 274.70,117.44 269.00,116.00
             269.00,116.00 279.36,131.00 279.36,131.00
             279.36,131.00 282.95,138.00 282.95,138.00
             282.95,138.00 287.55,145.00 287.55,145.00
             287.55,145.00 290.76,157.00 290.76,157.00
             290.76,157.00 296.00,168.00 296.00,168.00
             296.00,168.00 286.71,157.52 286.71,157.52
             286.71,157.52 276.01,150.73 276.01,150.73
             276.01,150.73 267.00,142.00 267.00,142.00
             269.80,155.82 279.15,154.77 284.00,165.00
             280.15,164.68 268.96,161.83 265.00,160.81
             261.12,159.43 258.81,157.10 256.00,160.81
             256.00,160.81 269.00,166.00 269.00,166.00
             262.52,169.48 258.27,167.05 257.00,176.00
             261.29,175.00 264.53,173.15 269.00,173.38
             272.53,173.72 273.26,174.19 277.00,173.38
             280.76,172.40 285.84,169.63 289.61,172.02
             292.57,173.90 296.02,182.58 297.00,186.00
             297.00,186.00 283.72,185.04 283.72,185.04
             283.72,185.04 273.00,183.00 273.00,183.00
             273.00,183.00 278.00,189.00 278.00,189.00
             271.45,188.47 268.71,187.09 262.00,189.00
             272.10,194.87 287.94,187.80 295.79,196.11
             300.46,201.05 302.18,215.44 300.45,221.96
             299.76,224.55 296.97,230.39 294.00,230.00
             290.05,233.80 284.22,234.02 279.00,235.00
             279.00,235.00 281.00,239.00 281.00,239.00
             281.00,239.00 285.00,238.00 285.00,238.00
             286.36,239.66 286.75,239.86 288.00,238.00
             292.60,239.84 303.10,239.77 308.00,238.51
             312.23,237.42 311.26,236.64 317.00,236.00
             317.00,236.00 316.00,237.00 316.00,237.00
             316.00,237.00 317.00,239.00 317.00,239.00
             323.01,236.95 329.38,239.07 336.00,239.00
             339.14,238.96 342.93,239.45 344.00,236.00
             344.00,236.00 349.00,236.00 349.00,236.00
             342.25,233.24 326.83,234.76 324.00,225.00
             320.65,220.47 318.80,208.58 317.48,203.00
             316.78,200.06 314.54,195.59 314.55,193.00
             314.57,189.41 314.43,188.78 317.74,184.87
             321.04,180.96 319.43,183.17 320.13,182.30
             320.83,181.43 325.00,181.00 325.00,181.00
             325.00,181.00 345.00,180.00 345.00,180.00
             345.00,180.00 340.00,177.00 340.00,177.00
             345.30,171.95 358.65,168.07 366.00,168.00
             363.27,163.93 359.31,164.79 355.00,165.92
             344.58,168.66 342.32,174.34 332.00,173.00
             337.14,164.16 341.69,163.50 351.00,161.00
             343.00,156.36 337.90,161.67 331.83,166.18
             331.83,166.18 321.00,174.00 321.00,174.00
             321.00,174.00 319.00,171.00 319.00,171.00
             326.23,158.76 329.16,159.32 340.00,152.11
             340.00,152.11 352.00,143.34 352.00,143.34
             355.19,141.15 363.05,136.62 365.00,134.00
             354.31,134.97 355.43,139.00 345.00,143.00
             345.00,143.00 351.00,132.00 351.00,132.00
             345.64,133.92 344.96,136.41 340.91,140.28
             332.74,148.09 333.34,147.77 324.00,154.00
             324.00,154.00 327.00,137.00 327.00,137.00
             321.77,137.88 321.07,140.37 319.02,145.00
             319.02,145.00 311.00,172.00 311.00,172.00
             306.36,158.52 311.63,152.84 316.66,141.00
             316.66,141.00 320.30,130.09 320.30,130.09
             322.98,125.41 326.62,124.51 330.00,117.00
             318.54,115.13 319.73,130.06 312.00,137.00
             312.00,137.00 310.10,127.00 310.10,127.00
             310.10,127.00 310.10,116.00 310.10,116.00
             310.10,116.00 307.00,116.00 307.00,116.00
             307.00,116.00 306.27,127.28 306.27,127.28
             306.27,127.28 306.79,139.00 306.79,139.00
             306.79,139.00 302.00,155.00 302.00,155.00
             296.00,151.37 296.80,147.86 293.68,142.00
             290.73,136.46 285.11,130.09 284.21,124.00
             283.22,117.31 286.33,114.64 285.00,108.00
             285.00,108.00 283.00,108.00 283.00,108.00 Z" />
</svg>
