<?xml version="1.0" encoding="UTF-8" standalone="no"?>
<!DOCTYPE svg PUBLIC "-//W3C//DTD SVG 20010904//EN"
              "http://www.w3.org/TR/2001/REC-SVG-20010904/DTD/svg10.dtd">

<svg xmlns="http://www.w3.org/2000/svg"
     width="2.04333in" height="2.66667in"
     viewBox="0 0 613 800">
  <path id="Selection"
        fill="none" stroke="black" stroke-width="1"
        d="M 270.00,356.00
           C 268.47,358.58 277.17,361.99 279.38,365.94
             280.62,369.81 283.81,373.50 286.00,377.00
             288.19,380.50 286.62,381.88 288.00,385.69
             289.38,389.50 294.00,393.74 292.39,393.96
             290.78,394.17 287.28,388.37 284.56,386.12
             282.62,384.52 279.54,383.00 278.31,382.06
             275.38,379.81 272.75,377.06 272.94,375.75
             273.12,374.44 270.00,373.00 270.00,373.00
             269.38,377.31 272.31,380.91 275.31,384.06
             279.75,386.88 285.56,390.88 282.50,391.81
             279.44,392.75 258.20,383.67 257.36,383.84
             256.51,384.02 256.13,384.27 256.38,385.00
             257.50,388.30 263.89,389.11 267.96,391.17
             267.96,391.17 277.01,398.03 277.01,398.03
             280.54,399.63 284.00,396.25 288.50,401.31
             294.96,406.39 296.70,414.24 296.50,422.00
             296.71,424.47 296.34,429.73 296.00,432.00
             294.85,435.87 294.39,437.52 291.74,439.96
             288.96,440.70 284.26,442.91 279.12,443.00
             279.12,443.00 284.38,444.00 284.38,444.00
             284.38,444.00 288.39,442.84 291.88,442.88
             296.87,442.93 300.90,445.38 301.89,444.19
             302.88,443.00 303.88,441.25 305.12,441.50
             306.38,441.75 320.60,444.90 326.53,443.22
             321.00,439.81 316.12,439.88 313.26,435.73
             310.26,431.37 309.61,426.04 308.83,421.00
             308.10,416.35 305.61,412.95 306.02,409.42
             306.22,407.76 307.34,405.65 307.90,403.99
             309.76,398.47 308.34,394.02 313.25,389.50
             313.25,389.50 325.75,381.38 325.75,381.38
             328.46,379.45 333.71,375.61 336.61,374.22
             340.31,372.44 342.69,372.11 342.35,370.87
             341.27,370.30 340.70,370.12 339.78,370.04
             336.15,369.73 331.78,373.81 328.00,376.00
             328.00,376.00 334.30,367.35 333.35,366.35
             332.39,365.35 332.37,365.59 331.65,365.83
             328.38,366.88 326.13,373.05 323.13,376.17
             323.13,376.17 319.86,378.75 317.61,380.26
             314.85,382.12 313.50,384.19 313.00,383.00
             312.88,378.56 318.21,370.62 321.78,367.39
             323.63,365.72 326.09,363.30 326.30,358.57
             326.04,357.30 325.09,356.52 324.00,358.00
             322.91,359.48 323.00,364.09 319.43,365.26
             314.99,367.31 310.03,373.06 307.94,379.00
             304.87,387.69 305.52,397.05 303.00,397.96
             301.55,398.47 301.16,393.53 302.25,388.25
             302.80,385.60 303.99,383.72 305.06,380.69
             308.13,372.00 313.32,363.25 313.91,361.00
             313.28,360.81 312.52,360.28 311.78,360.61
             308.43,363.04 306.22,371.74 305.00,372.00
             303.78,372.26 303.30,370.91 302.74,367.17
             302.25,363.97 303.65,359.13 302.22,358.09
             300.61,358.22 300.43,358.22 299.87,359.04
             299.30,359.87 299.38,365.56 299.51,368.00
             299.71,371.81 299.73,375.30 298.87,378.00
             298.22,380.04 298.35,383.30 296.00,384.00
             293.65,384.70 292.38,380.06 291.96,376.43
             291.70,374.66 289.20,373.34 287.69,371.19
             285.74,368.42 284.50,366.81 284.25,363.88
             284.25,363.88 284.30,360.57 283.69,358.44
             283.18,356.67 282.56,357.75 282.00,356.00
             280.50,354.44 282.51,362.42 281.00,362.00
             279.49,361.58 271.20,355.09 270.00,356.00 Z
           M 329.96,373.83" />
</svg>
