<?xml version="1.0" encoding="UTF-8" standalone="no"?>
<!DOCTYPE svg PUBLIC "-//W3C//DTD SVG 20010904//EN"
              "http://www.w3.org/TR/2001/REC-SVG-20010904/DTD/svg10.dtd">

<svg xmlns="http://www.w3.org/2000/svg"
     width="2.01333in" height="1.33667in"
     viewBox="0 0 604 401">
  <path id="Selection"
        fill="none" stroke="black" stroke-width="1"
        d="M 317.27,106.00
           C 316.98,105.19 315.66,105.88 315.02,105.00
             315.02,105.00 314.36,109.82 311.55,115.36
             308.36,120.82 304.45,124.91 304.45,124.91
             299.91,129.91 297.82,133.09 296.00,133.00
             294.18,132.91 294.09,123.00 294.09,123.00
             294.09,123.00 294.09,108.00 294.09,108.00
             292.91,109.40 292.45,108.90 291.88,110.75
             290.38,119.25 290.64,119.82 290.34,126.64
             291.16,129.72 295.27,136.36 293.45,151.36
             292.28,155.66 287.18,150.91 283.27,144.91
             279.36,138.91 274.99,142.46 270.00,142.82
             270.00,142.82 258.00,142.00 258.00,142.00
             258.00,142.00 258.90,140.50 260.31,139.56
             261.44,138.39 264.00,138.00 264.00,138.00
             263.31,137.42 263.29,137.02 262.44,137.25
             261.69,137.45 260.81,137.25 258.75,138.25
             258.06,138.81 256.63,139.32 256.00,140.12
             254.87,141.58 255.19,141.31 254.62,143.44
             254.15,144.68 254.71,143.76 254.06,145.38
             253.67,146.36 252.44,148.75 251.19,149.12
             250.55,150.66 251.14,152.42 251.00,153.00
             255.66,149.07 255.65,146.29 258.00,145.50
             259.28,145.07 261.55,145.59 265.00,146.00
             258.05,154.74 257.88,159.74 249.00,167.00
             249.00,167.00 253.00,169.00 253.00,169.00
             259.17,160.41 264.67,152.82 275.00,149.00
             275.00,149.00 279.00,151.00 279.00,151.00
             279.40,162.39 285.46,156.00 289.02,168.00
             290.48,172.90 289.22,174.71 290.22,179.00
             291.73,185.51 294.92,185.52 295.68,195.00
             295.68,195.00 294.45,211.91 294.45,211.91
             294.45,211.91 290.89,219.04 290.89,219.04
             289.32,223.21 289.10,225.98 286.16,229.91
             283.98,232.84 271.59,242.30 268.00,244.00
             268.00,244.00 271.00,245.00 271.00,245.00
             271.00,245.00 266.00,248.00 266.00,248.00
             272.60,246.79 272.74,244.92 277.00,244.31
             277.00,244.31 286.99,244.31 286.99,244.31
             293.32,243.29 291.48,240.03 300.00,242.00
             300.00,242.00 289.00,246.00 289.00,246.00
             296.83,249.11 300.62,244.30 306.00,244.71
             306.00,244.71 320.00,249.00 320.00,249.00
             318.01,246.03 317.49,246.29 314.00,246.00
             314.00,246.00 317.00,242.00 317.00,242.00
             323.47,245.95 322.77,244.41 330.06,245.12
             330.06,245.12 335.44,245.83 337.81,244.94
             338.96,244.51 339.00,244.00 339.00,244.00
             334.85,240.84 328.31,242.69 327.00,242.00
             325.69,241.31 324.94,237.88 324.94,237.88
             318.89,233.16 312.13,220.39 310.00,213.00
             309.44,211.04 309.46,209.02 309.48,207.00
             309.53,198.66 306.44,197.43 307.18,193.00
             307.72,189.73 311.34,185.60 313.00,182.00
             313.00,182.00 326.72,179.49 326.72,179.49
             329.53,178.56 330.78,176.49 335.00,176.88
             341.30,176.84 351.65,183.91 352.26,179.26
             352.39,178.48 352.62,178.70 350.83,178.70
             348.00,179.43 344.00,176.88 344.00,176.88
             348.45,175.36 350.90,175.35 350.00,170.00
             343.59,176.59 333.91,174.30 329.00,174.00
             326.83,172.52 329.74,166.04 329.74,166.04
             329.74,166.04 332.92,161.33 333.55,159.92
             333.80,159.36 334.20,158.26 334.46,157.35
             334.02,157.02 334.27,157.17 333.64,156.91
             331.55,160.00 331.09,160.00 329.45,160.91
             327.82,161.82 326.00,162.00 326.00,162.00
             325.64,157.32 324.18,157.09 326.00,152.45
             328.00,147.82 324.00,151.00 324.00,151.00
             321.79,156.31 323.36,164.18 326.00,166.00
             325.75,167.36 323.46,167.11 320.66,165.88
             318.65,164.99 316.24,163.32 314.75,162.66
             314.00,162.31 313.75,162.41 313.00,163.00
             312.25,163.59 326.72,170.72 326.00,173.53
             324.34,177.81 302.38,181.12 301.00,179.00
             300.38,166.38 293.73,160.34 303.69,148.13
             306.72,144.42 310.35,143.30 314.17,140.74
             318.97,137.51 320.73,134.72 326.18,132.27
             330.81,130.19 337.94,129.62 338.00,124.00
             338.00,124.00 321.27,130.55 319.91,131.27
             318.55,132.00 307.00,141.00 307.00,141.00
             307.00,141.00 302.27,143.18 300.00,141.00
             298.68,139.73 302.44,134.42 306.73,129.00
             309.81,125.10 313.18,121.74 315.02,116.96
             316.44,113.34 317.64,109.45 317.27,106.00 Z
           M 252.31,147.12M 308.45,132.82M 314.94,164.47" />
</svg>
