<?xml version="1.0" encoding="UTF-8" standalone="no"?>
<!DOCTYPE svg PUBLIC "-//W3C//DTD SVG 20010904//EN"
              "http://www.w3.org/TR/2001/REC-SVG-20010904/DTD/svg10.dtd">

<svg xmlns="http://www.w3.org/2000/svg"
     width="2.01333in" height="1.33667in"
     viewBox="0 0 604 401">
  <path id="trunk1"
        fill="none" stroke="black" stroke-width="1"
        d="M 303.00,58.00
           C 304.35,68.30 307.61,66.22 311.00,75.00
             311.00,75.00 315.00,90.00 315.00,90.00
             315.00,90.00 313.00,90.00 313.00,90.00
             313.00,90.00 314.00,101.00 314.00,101.00
             311.49,99.88 311.38,99.84 308.50,98.56
             304.25,96.00 302.93,93.93 298.00,92.13
             288.35,88.61 283.35,95.65 278.00,82.00
             276.23,87.65 280.21,93.45 286.00,94.50
             291.10,95.42 290.44,92.52 298.00,96.00
             298.00,96.00 287.00,97.53 287.00,97.53
             287.00,97.53 277.00,101.00 277.00,101.00
             278.36,103.03 279.08,104.05 281.85,103.40
             284.05,102.89 285.26,101.08 290.00,100.30
             298.90,98.84 298.62,101.04 306.00,102.00
             306.00,102.00 312.00,112.00 312.00,112.00
             312.00,112.00 320.00,121.00 320.00,121.00
             319.17,127.68 322.04,133.62 323.50,140.00
             325.83,150.14 325.15,167.55 316.45,174.81
             306.62,183.01 295.05,176.15 289.00,184.00
             289.00,184.00 278.00,186.29 278.00,186.29
             283.29,188.10 289.47,186.61 295.00,186.29
             297.65,186.38 299.27,186.96 302.00,186.29
             302.00,186.29 307.00,184.75 307.00,184.75
             309.81,183.92 315.56,182.82 317.00,186.00
             317.00,186.00 320.00,187.00 320.00,187.00
             323.24,186.08 329.02,183.35 331.99,183.61
             335.98,183.96 337.77,188.55 341.00,185.00
             341.00,185.00 344.00,183.00 344.00,183.00
             344.00,183.00 358.87,184.15 358.87,184.15
             358.87,184.15 362.00,182.00 362.00,182.00
             353.36,180.75 351.35,176.43 346.81,169.42
             343.52,164.36 344.38,163.93 342.55,159.00
             342.55,159.00 340.12,153.28 340.12,153.28
             337.79,145.13 336.07,129.39 337.00,121.00
             337.00,121.00 337.33,118.71 337.33,118.71
             337.33,118.71 343.21,107.80 343.21,107.80
             343.21,107.80 357.00,100.00 357.00,100.00
             357.00,100.00 345.00,102.00 345.00,102.00
             348.77,98.76 356.00,95.41 356.00,90.00
             356.00,90.00 339.00,103.00 339.00,103.00
             338.81,98.08 341.92,86.22 344.47,82.01
             347.38,77.22 349.53,76.68 352.00,71.00
             344.91,74.65 340.38,83.36 339.00,91.00
             336.41,94.53 335.72,93.56 336.00,90.00
             336.00,90.00 341.00,76.00 341.00,76.00
             341.00,76.00 341.00,68.00 341.00,68.00
             337.79,74.47 333.37,86.89 333.00,94.00
             328.80,95.29 331.91,101.59 327.17,100.97
             323.89,100.54 324.04,95.36 324.25,93.00
             324.25,93.00 324.25,84.09 324.25,84.09
             324.25,84.09 326.75,69.00 326.75,69.00
             326.75,69.00 326.75,57.00 326.75,57.00
             321.97,58.76 323.20,61.30 322.92,66.00
             322.31,76.12 322.08,74.78 320.00,84.00
             320.00,84.00 317.00,84.00 317.00,84.00
             315.47,77.82 309.30,63.45 308.00,61.75
             308.00,61.75 306.00,57.00 306.00,57.00
             306.00,57.00 303.00,58.00 303.00,58.00 Z
           M 337.00,93.00 337.00,93.00 337.00,93.00 337.00,93.00" />
</svg>
